  0
SECTION
  2
HEADER
  9
$ACADVER
  1
AC1027
  9
$ACADMAINTVER
 70
105
  9
$DWGCODEPAGE
  3
ANSI_1252
  9
$LASTSAVEDBY
  1
ezdxf
  9
$REQUIREDVERSIONS
160
0
  9
$INSBASE
 10
0.0
 20
0.0
 30
0.0
  9
$EXTMIN
 10
1e+20
 20
1e+20
 30
1e+20
  9
$EXTMAX
 10
-1e+20
 20
-1e+20
 30
-1e+20
  9
$LIMMIN
 10
0.0
 20
0.0
  9
$LIMMAX
 10
420.0
 20
297.0
  9
$ORTHOMODE
 70
0
  9
$REGENMODE
 70
1
  9
$FILLMODE
 70
1
  9
$QTEXTMODE
 70
0
  9
$MIRRTEXT
 70
1
  9
$LTSCALE
 40
1.0
  9
$ATTMODE
 70
1
  9
$TEXTSIZE
 40
2.5
  9
$TRACEWID
 40
1.0
  9
$TEXTSTYLE
  7
Standard
  9
$CLAYER
  8
0
  9
$CELTYPE
  6
ByLayer
  9
$CECOLOR
 62
256
  9
$CELTSCALE
 40
1.0
  9
$DISPSILH
 70
0
  9
$DIMSCALE
 40
1.0
  9
$DIMASZ
 40
2.5
  9
$DIMEXO
 40
0.625
  9
$DIMDLI
 40
3.75
  9
$DIMRND
 40
0.0
  9
$DIMDLE
 40
0.0
  9
$DIMEXE
 40
1.25
  9
$DIMTP
 40
0.0
  9
$DIMTM
 40
0.0
  9
$DIMTXT
 40
2.5
  9
$DIMCEN
 40
2.5
  9
$DIMTSZ
 40
0.0
  9
$DIMTOL
 70
0
  9
$DIMLIM
 70
0
  9
$DIMTIH
 70
0
  9
$DIMTOH
 70
0
  9
$DIMSE1
 70
0
  9
$DIMSE2
 70
0
  9
$DIMTAD
 70
1
  9
$DIMZIN
 70
8
  9
$DIMBLK
  1

  9
$DIMASO
 70
1
  9
$DIMSHO
 70
1
  9
$DIMPOST
  1

  9
$DIMAPOST
  1

  9
$DIMALT
 70
0
  9
$DIMALTD
 70
3
  9
$DIMALTF
 40
0.03937007874
  9
$DIMLFAC
 40
1.0
  9
$DIMTOFL
 70
1
  9
$DIMTVP
 40
0.0
  9
$DIMTIX
 70
0
  9
$DIMSOXD
 70
0
  9
$DIMSAH
 70
0
  9
$DIMBLK1
  1

  9
$DIMBLK2
  1

  9
$DIMSTYLE
  2
ISO-25
  9
$DIMCLRD
 70
0
  9
$DIMCLRE
 70
0
  9
$DIMCLRT
 70
0
  9
$DIMTFAC
 40
1.0
  9
$DIMGAP
 40
0.625
  9
$DIMJUST
 70
0
  9
$DIMSD1
 70
0
  9
$DIMSD2
 70
0
  9
$DIMTOLJ
 70
0
  9
$DIMTZIN
 70
8
  9
$DIMALTZ
 70
0
  9
$DIMALTTZ
 70
0
  9
$DIMUPT
 70
0
  9
$DIMDEC
 70
2
  9
$DIMTDEC
 70
2
  9
$DIMALTU
 70
2
  9
$DIMALTTD
 70
3
  9
$DIMTXSTY
  7
Standard
  9
$DIMAUNIT
 70
0
  9
$DIMADEC
 70
0
  9
$DIMALTRND
 40
0.0
  9
$DIMAZIN
 70
0
  9
$DIMDSEP
 70
44
  9
$DIMATFIT
 70
3
  9
$DIMFRAC
 70
0
  9
$DIMLDRBLK
  1

  9
$DIMLUNIT
 70
2
  9
$DIMLWD
 70
-2
  9
$DIMLWE
 70
-2
  9
$DIMTMOVE
 70
0
  9
$DIMFXL
 40
1.0
  9
$DIMFXLON
 70
0
  9
$DIMJOGANG
 40
0.785398163397
  9
$DIMTFILL
 70
0
  9
$DIMTFILLCLR
 70
0
  9
$DIMARCSYM
 70
0
  9
$DIMLTYPE
  6

  9
$DIMLTEX1
  6

  9
$DIMLTEX2
  6

  9
$DIMTXTDIRECTION
 70
0
  9
$LUNITS
 70
2
  9
$LUPREC
 70
4
  9
$SKETCHINC
 40
1.0
  9
$FILLETRAD
 40
10.0
  9
$AUNITS
 70
0
  9
$AUPREC
 70
2
  9
$MENU
  1
.
  9
$ELEVATION
 40
0.0
  9
$PELEVATION
 40
0.0
  9
$THICKNESS
 40
0.0
  9
$LIMCHECK
 70
0
  9
$CHAMFERA
 40
0.0
  9
$CHAMFERB
 40
0.0
  9
$CHAMFERC
 40
0.0
  9
$CHAMFERD
 40
0.0
  9
$SKPOLY
 70
0
  9
$TDCREATE
 40
2460433.763715278
  9
$TDUCREATE
 40
2458532.153996898
  9
$TDUPDATE
 40
2460433.763715278
  9
$TDUUPDATE
 40
2458532.1544311
  9
$TDINDWG
 40
0.0
  9
$TDUSRTIMER
 40
0.0
  9
$USRTIMER
 70
1
  9
$ANGBASE
 50
0.0
  9
$ANGDIR
 70
0
  9
$PDMODE
 70
0
  9
$PDSIZE
 40
0.0
  9
$PLINEWID
 40
0.0
  9
$SPLFRAME
 70
0
  9
$SPLINETYPE
 70
6
  9
$SPLINESEGS
 70
8
  9
$HANDSEED
  5
38
  9
$SURFTAB1
 70
6
  9
$SURFTAB2
 70
6
  9
$SURFTYPE
 70
6
  9
$SURFU
 70
6
  9
$SURFV
 70
6
  9
$UCSBASE
  2

  9
$UCSNAME
  2

  9
$UCSORG
 10
0.0
 20
0.0
 30
0.0
  9
$UCSXDIR
 10
1.0
 20
0.0
 30
0.0
  9
$UCSYDIR
 10
0.0
 20
1.0
 30
0.0
  9
$UCSORTHOREF
  2

  9
$UCSORTHOVIEW
 70
0
  9
$UCSORGTOP
 10
0.0
 20
0.0
 30
0.0
  9
$UCSORGBOTTOM
 10
0.0
 20
0.0
 30
0.0
  9
$UCSORGLEFT
 10
0.0
 20
0.0
 30
0.0
  9
$UCSORGRIGHT
 10
0.0
 20
0.0
 30
0.0
  9
$UCSORGFRONT
 10
0.0
 20
0.0
 30
0.0
  9
$UCSORGBACK
 10
0.0
 20
0.0
 30
0.0
  9
$PUCSBASE
  2

  9
$PUCSNAME
  2

  9
$PUCSORG
 10
0.0
 20
0.0
 30
0.0
  9
$PUCSXDIR
 10
1.0
 20
0.0
 30
0.0
  9
$PUCSYDIR
 10
0.0
 20
1.0
 30
0.0
  9
$PUCSORTHOREF
  2

  9
$PUCSORTHOVIEW
 70
0
  9
$PUCSORGTOP
 10
0.0
 20
0.0
 30
0.0
  9
$PUCSORGBOTTOM
 10
0.0
 20
0.0
 30
0.0
  9
$PUCSORGLEFT
 10
0.0
 20
0.0
 30
0.0
  9
$PUCSORGRIGHT
 10
0.0
 20
0.0
 30
0.0
  9
$PUCSORGFRONT
 10
0.0
 20
0.0
 30
0.0
  9
$PUCSORGBACK
 10
0.0
 20
0.0
 30
0.0
  9
$USERI1
 70
0
  9
$USERI2
 70
0
  9
$USERI3
 70
0
  9
$USERI4
 70
0
  9
$USERI5
 70
0
  9
$USERR1
 40
0.0
  9
$USERR2
 40
0.0
  9
$USERR3
 40
0.0
  9
$USERR4
 40
0.0
  9
$USERR5
 40
0.0
  9
$WORLDVIEW
 70
1
  9
$SHADEDGE
 70
3
  9
$SHADEDIF
 70
70
  9
$TILEMODE
 70
1
  9
$MAXACTVP
 70
64
  9
$PINSBASE
 10
0.0
 20
0.0
 30
0.0
  9
$PLIMCHECK
 70
0
  9
$PEXTMIN
 10
1e+20
 20
1e+20
 30
1e+20
  9
$PEXTMAX
 10
-1e+20
 20
-1e+20
 30
-1e+20
  9
$PLIMMIN
 10
0.0
 20
0.0
  9
$PLIMMAX
 10
420.0
 20
297.0
  9
$UNITMODE
 70
0
  9
$VISRETAIN
 70
1
  9
$PLINEGEN
 70
0
  9
$PSLTSCALE
 70
1
  9
$TREEDEPTH
 70
3020
  9
$CMLSTYLE
  2
Standard
  9
$CMLJUST
 70
0
  9
$CMLSCALE
 40
20.0
  9
$PROXYGRAPHICS
 70
1
  9
$MEASUREMENT
 70
1
  9
$CELWEIGHT
370
-1
  9
$ENDCAPS
280
0
  9
$JOINSTYLE
280
0
  9
$LWDISPLAY
290
0
  9
$INSUNITS
 70
6
  9
$HYPERLINKBASE
  1

  9
$STYLESHEET
  1

  9
$XEDIT
290
1
  9
$CEPSNTYPE
380
0
  9
$PSTYLEMODE
290
1
  9
$FINGERPRINTGUID
  2
{5CF7685E-09E0-4987-B889-E472F559360B}
  9
$VERSIONGUID
  2
{885DB8FF-08C2-41F4-8442-7B97DDEFA29F}
  9
$EXTNAMES
290
1
  9
$PSVPSCALE
 40
0.0
  9
$OLESTARTUP
290
0
  9
$SORTENTS
280
127
  9
$INDEXCTL
280
0
  9
$HIDETEXT
280
1
  9
$XCLIPFRAME
280
0
  9
$HALOGAP
280
0
  9
$OBSCOLOR
 70
257
  9
$OBSLTYPE
280
0
  9
$INTERSECTIONDISPLAY
280
0
  9
$INTERSECTIONCOLOR
 70
257
  9
$DIMASSOC
280
2
  9
$PROJECTNAME
  1

  9
$CAMERADISPLAY
290
0
  9
$LENSLENGTH
 40
50.0
  9
$CAMERAHEIGHT
 40
0.0
  9
$STEPSPERSEC
 40
24.0
  9
$STEPSIZE
 40
100.0
  9
$3DDWFPREC
 40
2.0
  9
$PSOLWIDTH
 40
0.005
  9
$PSOLHEIGHT
 40
0.08
  9
$LOFTANG1
 40
1.570796326795
  9
$LOFTANG2
 40
1.570796326795
  9
$LOFTMAG1
 40
0.0
  9
$LOFTMAG2
 40
0.0
  9
$LOFTPARAM
 70
7
  9
$LOFTNORMALS
280
1
  9
$LATITUDE
 40
37.795
  9
$LONGITUDE
 40
-122.394
  9
$NORTHDIRECTION
 40
0.0
  9
$TIMEZONE
 70
-8000
  9
$LIGHTGLYPHDISPLAY
280
1
  9
$TILEMODELIGHTSYNCH
280
1
  9
$CMATERIAL
347
20
  9
$SOLIDHIST
280
0
  9
$SHOWHIST
280
1
  9
$DWFFRAME
280
2
  9
$DGNFRAME
280
2
  9
$REALWORLDSCALE
290
1
  9
$INTERFERECOLOR
 62
256
  9
$CSHADOW
280
0
  9
$SHADOWPLANELOCATION
 40
0.0
  0
ENDSEC
  0
SECTION
  2
CLASSES
  0
CLASS
  1
ACDBDICTIONARYWDFLT
  2
AcDbDictionaryWithDefault
  3
ObjectDBX Classes
 90
0
 91
0
280
0
281
0
  0
CLASS
  1
SUN
  2
AcDbSun
  3
SCENEOE
 90
1153
 91
0
280
0
281
0
  0
CLASS
  1
VISUALSTYLE
  2
AcDbVisualStyle
  3
ObjectDBX Classes
 90
4095
 91
0
280
0
281
0
  0
CLASS
  1
MATERIAL
  2
AcDbMaterial
  3
ObjectDBX Classes
 90
1153
 91
0
280
0
281
0
  0
CLASS
  1
SCALE
  2
AcDbScale
  3
ObjectDBX Classes
 90
1153
 91
0
280
0
281
0
  0
CLASS
  1
TABLESTYLE
  2
AcDbTableStyle
  3
ObjectDBX Classes
 90
4095
 91
0
280
0
281
0
  0
CLASS
  1
MLEADERSTYLE
  2
AcDbMLeaderStyle
  3
ACDB_MLEADERSTYLE_CLASS
 90
4095
 91
0
280
0
281
0
  0
CLASS
  1
DICTIONARYVAR
  2
AcDbDictionaryVar
  3
ObjectDBX Classes
 90
0
 91
0
280
0
281
0
  0
CLASS
  1
CELLSTYLEMAP
  2
AcDbCellStyleMap
  3
ObjectDBX Classes
 90
1152
 91
0
280
0
281
0
  0
CLASS
  1
MENTALRAYRENDERSETTINGS
  2
AcDbMentalRayRenderSettings
  3
SCENEOE
 90
1024
 91
0
280
0
281
0
  0
CLASS
  1
ACDBDETAILVIEWSTYLE
  2
AcDbDetailViewStyle
  3
ObjectDBX Classes
 90
1025
 91
0
280
0
281
0
  0
CLASS
  1
ACDBSECTIONVIEWSTYLE
  2
AcDbSectionViewStyle
  3
ObjectDBX Classes
 90
1025
 91
0
280
0
281
0
  0
CLASS
  1
RASTERVARIABLES
  2
AcDbRasterVariables
  3
ISM
 90
0
 91
0
280
0
281
0
  0
CLASS
  1
ACDBPLACEHOLDER
  2
AcDbPlaceHolder
  3
ObjectDBX Classes
 90
0
 91
0
280
0
281
0
  0
CLASS
  1
LAYOUT
  2
AcDbLayout
  3
ObjectDBX Classes
 90
0
 91
0
280
0
281
0
  0
ENDSEC
  0
SECTION
  2
TABLES
  0
TABLE
  2
VPORT
  5
8
330
0
100
AcDbSymbolTable
 70
1
  0
VPORT
  5
23
330
8
100
AcDbSymbolTableRecord
100
AcDbViewportTableRecord
  2
*Active
 70
0
 10
0.0
 20
0.0
 11
1.0
 21
1.0
 12
0.0
 22
0.0
 13
0.0
 23
0.0
 14
0.5
 24
0.5
 15
0.5
 25
0.5
 16
0.0
 26
0.0
 36
1.0
 17
0.0
 27
0.0
 37
0.0
 40
1000.0
 41
1.34
 42
50.0
 43
0.0
 44
0.0
 50
0.0
 51
0.0
 71
0
 72
1000
 73
1
 74
3
 75
0
 76
0
 77
0
 78
0
281
0
 65
0
146
0.0
  0
ENDTAB
  0
TABLE
  2
LTYPE
  5
2
330
0
100
AcDbSymbolTable
 70
3
  0
LTYPE
  5
24
330
2
100
AcDbSymbolTableRecord
100
AcDbLinetypeTableRecord
  2
ByBlock
 70
0
  3

 72
65
 73
0
 40
0.0
  0
LTYPE
  5
25
330
2
100
AcDbSymbolTableRecord
100
AcDbLinetypeTableRecord
  2
ByLayer
 70
0
  3

 72
65
 73
0
 40
0.0
  0
LTYPE
  5
26
330
2
100
AcDbSymbolTableRecord
100
AcDbLinetypeTableRecord
  2
Continuous
 70
0
  3

 72
65
 73
0
 40
0.0
  0
ENDTAB
  0
TABLE
  2
LAYER
  5
1
330
0
100
AcDbSymbolTable
 70
5
  0
LAYER
  5
27
330
1
100
AcDbSymbolTableRecord
100
AcDbLayerTableRecord
  2
0
 70
0
 62
7
  6
Continuous
370
-3
390
13
347
21
  0
LAYER
  5
28
330
1
100
AcDbSymbolTableRecord
100
AcDbLayerTableRecord
  2
Defpoints
 70
0
 62
7
  6
Continuous
290
0
370
-3
390
13
347
21
  0
LAYER
  5
2F
330
1
100
AcDbSymbolTableRecord
100
AcDbLayerTableRecord
  2
conductor
 70
0
 62
1
  6
Continuous
370
-3
390
13
347
21
  0
LAYER
  5
30
330
1
100
AcDbSymbolTableRecord
100
AcDbLayerTableRecord
  2
dielectric
 70
0
 62
8
  6
Continuous
370
-3
390
13
347
21
  0
LAYER
  5
31
330
1
100
AcDbSymbolTableRecord
100
AcDbLayerTableRecord
  2
substrate
 70
0
 62
5
  6
Continuous
370
-3
390
13
347
21
  0
ENDTAB
  0
TABLE
  2
STYLE
  5
5
330
0
100
AcDbSymbolTable
 70
1
  0
STYLE
  5
29
330
5
100
AcDbSymbolTableRecord
100
AcDbTextStyleTableRecord
  2
Standard
 70
0
 40
0.0
 41
1.0
 50
0.0
 71
0
 42
2.5
  3
txt
  4

  0
ENDTAB
  0
TABLE
  2
VIEW
  5
7
330
0
100
AcDbSymbolTable
 70
0
  0
ENDTAB
  0
TABLE
  2
UCS
  5
6
330
0
100
AcDbSymbolTable
 70
0
  0
ENDTAB
  0
TABLE
  2
APPID
  5
3
330
0
100
AcDbSymbolTable
 70
3
  0
APPID
  5
2A
330
3
100
AcDbSymbolTableRecord
100
AcDbRegAppTableRecord
  2
ACAD
 70
0
  0
APPID
  5
35
330
3
100
AcDbSymbolTableRecord
100
AcDbRegAppTableRecord
  2
HATCHBACKGROUNDCOLOR
 70
0
  0
APPID
  5
36
330
3
100
AcDbSymbolTableRecord
100
AcDbRegAppTableRecord
  2
EZDXF
 70
0
  0
ENDTAB
  0
TABLE
  2
DIMSTYLE
  5
4
330
0
100
AcDbSymbolTable
 70
1
100
AcDbDimStyleTable
  0
DIMSTYLE
105
2B
330
4
100
AcDbSymbolTableRecord
100
AcDbDimStyleTableRecord
  2
Standard
 70
0
 40
1.0
 41
2.5
 42
0.625
 43
3.75
 44
1.25
 45
0.0
 46
0.0
 47
0.0
 48
0.0
 49
2.5
140
2.5
141
2.5
142
0.0
143
0.03937007874
144
1.0
145
0.0
146
1.0
147
0.625
148
0.0
 69
0
 70
0
 71
0
 72
0
 73
0
 74
0
 75
0
 76
0
 77
1
 78
8
 79
3
170
0
171
3
172
1
173
0
174
0
175
0
176
0
177
0
178
0
179
2
271
2
272
2
273
2
274
3
275
0
276
0
277
2
278
44
279
0
280
0
281
0
282
0
283
0
284
8
285
0
286
0
288
0
289
3
290
0
371
-2
372
-2
  0
ENDTAB
  0
TABLE
  2
BLOCK_RECORD
  5
9
330
0
100
AcDbSymbolTable
 70
2
  0
BLOCK_RECORD
  5
17
330
9
100
AcDbSymbolTableRecord
100
AcDbBlockTableRecord
  2
*Model_Space
340
1A
 70
0
280
1
281
0
  0
BLOCK_RECORD
  5
1B
330
9
100
AcDbSymbolTableRecord
100
AcDbBlockTableRecord
  2
*Paper_Space
340
1E
 70
0
280
1
281
0
  0
ENDTAB
  0
ENDSEC
  0
SECTION
  2
BLOCKS
  0
BLOCK
  5
18
330
17
100
AcDbEntity
  8
0
100
AcDbBlockBegin
  2
*Model_Space
 70
0
 10
0.0
 20
0.0
 30
0.0
  3
*Model_Space
  1

  0
ENDBLK
  5
19
330
17
100
AcDbEntity
  8
0
100
AcDbBlockEnd
  0
BLOCK
  5
1C
330
1B
100
AcDbEntity
  8
0
100
AcDbBlockBegin
  2
*Paper_Space
 70
0
 10
0.0
 20
0.0
 30
0.0
  3
*Paper_Space
  1

  0
ENDBLK
  5
1D
330
1B
100
AcDbEntity
  8
0
100
AcDbBlockEnd
  0
ENDSEC
  0
SECTION
  2
ENTITIES
  0
LWPOLYLINE
  5
32
330
17
100
AcDbEntity
  8
conductor
100
AcDbPolyline
 90
555
 70
1
 43
0.5
 10
2265.625
 20
-1796.875
 10
2265.625
 20
-1806.640625
 10
2265.625
 20
-1816.40625
 10
2265.625
 20
-1826.171875
 10
2265.625
 20
-1835.9375
 10
2265.625
 20
-1845.703125
 10
2265.625
 20
-1855.46875
 10
2265.625
 20
-1865.234375
 10
2255.859375
 20
-1875.0
 10
2246.09375
 20
-1875.0
 10
2236.328125
 20
-1875.0
 10
2226.5625
 20
-1875.0
 10
2216.796875
 20
-1875.0
 10
2207.03125
 20
-1875.0
 10
2197.265625
 20
-1875.0
 10
2187.5
 20
-1875.0
 10
2177.734375
 20
-1875.0
 10
2167.96875
 20
-1875.0
 10
2158.203125
 20
-1875.0
 10
2148.4375
 20
-1875.0
 10
2138.671875
 20
-1875.0
 10
2128.90625
 20
-1875.0
 10
2119.140625
 20
-1875.0
 10
2109.375
 20
-1875.0
 10
2099.609375
 20
-1875.0
 10
2089.84375
 20
-1875.0
 10
2080.078125
 20
-1875.0
 10
2070.3125
 20
-1875.0
 10
2060.546875
 20
-1875.0
 10
2050.78125
 20
-1875.0
 10
2041.015625
 20
-1875.0
 10
2031.25
 20
-1875.0
 10
2031.25
 20
-1884.765625
 10
2031.25
 20
-1894.53125
 10
2031.25
 20
-1904.296875
 10
2031.25
 20
-1914.0625
 10
2031.25
 20
-1923.828125
 10
2031.25
 20
-1933.59375
 10
2031.25
 20
-1943.359375
 10
2021.484375
 20
-1953.125
 10
2011.71875
 20
-1953.125
 10
2001.953125
 20
-1953.125
 10
1992.1875
 20
-1953.125
 10
1982.421875
 20
-1953.125
 10
1972.65625
 20
-1953.125
 10
1962.890625
 20
-1953.125
 10
1953.125
 20
-1953.125
 10
1953.125
 20
-1962.890625
 10
1953.125
 20
-1972.65625
 10
1953.125
 20
-1982.421875
 10
1953.125
 20
-1992.1875
 10
1953.125
 20
-2001.953125
 10
1953.125
 20
-2011.71875
 10
1953.125
 20
-2021.484375
 10
1953.125
 20
-2031.25
 10
1953.125
 20
-2041.015625
 10
1953.125
 20
-2050.78125
 10
1953.125
 20
-2060.546875
 10
1953.125
 20
-2070.3125
 10
1953.125
 20
-2080.078125
 10
1953.125
 20
-2089.84375
 10
1953.125
 20
-2099.609375
 10
1943.359375
 20
-2109.375
 10
1933.59375
 20
-2109.375
 10
1923.828125
 20
-2109.375
 10
1914.0625
 20
-2109.375
 10
1904.296875
 20
-2109.375
 10
1894.53125
 20
-2109.375
 10
1884.765625
 20
-2109.375
 10
1875.0
 20
-2109.375
 10
1875.0
 20
-2119.140625
 10
1875.0
 20
-2128.90625
 10
1875.0
 20
-2138.671875
 10
1875.0
 20
-2148.4375
 10
1875.0
 20
-2158.203125
 10
1875.0
 20
-2167.96875
 10
1875.0
 20
-2177.734375
 10
1875.0
 20
-2187.5
 10
1875.0
 20
-2197.265625
 10
1875.0
 20
-2207.03125
 10
1875.0
 20
-2216.796875
 10
1875.0
 20
-2226.5625
 10
1875.0
 20
-2236.328125
 10
1875.0
 20
-2246.09375
 10
1875.0
 20
-2255.859375
 10
1875.0
 20
-2265.625
 10
1875.0
 20
-2275.390625
 10
1875.0
 20
-2285.15625
 10
1875.0
 20
-2294.921875
 10
1875.0
 20
-2304.6875
 10
1875.0
 20
-2314.453125
 10
1875.0
 20
-2324.21875
 10
1875.0
 20
-2333.984375
 10
1875.0
 20
-2343.75
 10
1875.0
 20
-2353.515625
 10
1875.0
 20
-2363.28125
 10
1875.0
 20
-2373.046875
 10
1875.0
 20
-2382.8125
 10
1875.0
 20
-2392.578125
 10
1875.0
 20
-2402.34375
 10
1875.0
 20
-2412.109375
 10
1865.234375
 20
-2421.875
 10
1855.46875
 20
-2421.875
 10
1845.703125
 20
-2421.875
 10
1835.9375
 20
-2421.875
 10
1826.171875
 20
-2421.875
 10
1816.40625
 20
-2421.875
 10
1806.640625
 20
-2421.875
 10
1796.875
 20
-2421.875
 10
1796.875
 20
-2431.640625
 10
1796.875
 20
-2441.40625
 10
1796.875
 20
-2451.171875
 10
1796.875
 20
-2460.9375
 10
1796.875
 20
-2470.703125
 10
1796.875
 20
-2480.46875
 10
1796.875
 20
-2490.234375
 10
1796.875
 20
-2500.0
 10
1796.875
 20
-2509.765625
 10
1796.875
 20
-2519.53125
 10
1796.875
 20
-2529.296875
 10
1796.875
 20
-2539.0625
 10
1796.875
 20
-2548.828125
 10
1796.875
 20
-2558.59375
 10
1796.875
 20
-2568.359375
 10
1796.875
 20
-2578.125
 10
1796.875
 20
-2587.890625
 10
1796.875
 20
-2597.65625
 10
1796.875
 20
-2607.421875
 10
1796.875
 20
-2617.1875
 10
1796.875
 20
-2626.953125
 10
1796.875
 20
-2636.71875
 10
1796.875
 20
-2646.484375
 10
1806.640625
 20
-2646.484375
 10
1816.40625
 20
-2646.484375
 10
1826.171875
 20
-2646.484375
 10
1835.9375
 20
-2646.484375
 10
1845.703125
 20
-2646.484375
 10
1855.46875
 20
-2646.484375
 10
1865.234375
 20
-2646.484375
 10
1875.0
 20
-2656.25
 10
1875.0
 20
-2666.015625
 10
1875.0
 20
-2675.78125
 10
1875.0
 20
-2685.546875
 10
1875.0
 20
-2695.3125
 10
1875.0
 20
-2705.078125
 10
1875.0
 20
-2714.84375
 10
1875.0
 20
-2724.609375
 10
1875.0
 20
-2734.375
 10
1875.0
 20
-2744.140625
 10
1875.0
 20
-2753.90625
 10
1875.0
 20
-2763.671875
 10
1875.0
 20
-2773.4375
 10
1875.0
 20
-2783.203125
 10
1875.0
 20
-2792.96875
 10
1875.0
 20
-2802.734375
 10
1875.0
 20
-2812.5
 10
1875.0
 20
-2822.265625
 10
1875.0
 20
-2832.03125
 10
1875.0
 20
-2841.796875
 10
1875.0
 20
-2851.5625
 10
1875.0
 20
-2861.328125
 10
1875.0
 20
-2871.09375
 10
1875.0
 20
-2880.859375
 10
1884.765625
 20
-2880.859375
 10
1894.53125
 20
-2880.859375
 10
1904.296875
 20
-2880.859375
 10
1914.0625
 20
-2880.859375
 10
1923.828125
 20
-2880.859375
 10
1933.59375
 20
-2880.859375
 10
1943.359375
 20
-2880.859375
 10
1953.125
 20
-2890.625
 10
1953.125
 20
-2900.390625
 10
1953.125
 20
-2910.15625
 10
1953.125
 20
-2919.921875
 10
1953.125
 20
-2929.6875
 10
1953.125
 20
-2939.453125
 10
1953.125
 20
-2949.21875
 10
1953.125
 20
-2958.984375
 10
1962.890625
 20
-2958.984375
 10
1972.65625
 20
-2958.984375
 10
1982.421875
 20
-2958.984375
 10
1992.1875
 20
-2958.984375
 10
2001.953125
 20
-2958.984375
 10
2011.71875
 20
-2958.984375
 10
2021.484375
 20
-2958.984375
 10
2031.25
 20
-2968.75
 10
2031.25
 20
-2978.515625
 10
2031.25
 20
-2988.28125
 10
2031.25
 20
-2998.046875
 10
2031.25
 20
-3007.8125
 10
2031.25
 20
-3017.578125
 10
2031.25
 20
-3027.34375
 10
2031.25
 20
-3037.109375
 10
2031.25
 20
-3046.875
 10
2031.25
 20
-3056.640625
 10
2031.25
 20
-3066.40625
 10
2031.25
 20
-3076.171875
 10
2031.25
 20
-3085.9375
 10
2031.25
 20
-3095.703125
 10
2031.25
 20
-3105.46875
 10
2031.25
 20
-3115.234375
 10
2041.015625
 20
-3115.234375
 10
2050.78125
 20
-3115.234375
 10
2060.546875
 20
-3115.234375
 10
2070.3125
 20
-3115.234375
 10
2080.078125
 20
-3115.234375
 10
2089.84375
 20
-3115.234375
 10
2099.609375
 20
-3115.234375
 10
2109.375
 20
-3115.234375
 10
2119.140625
 20
-3115.234375
 10
2128.90625
 20
-3115.234375
 10
2138.671875
 20
-3115.234375
 10
2148.4375
 20
-3115.234375
 10
2158.203125
 20
-3115.234375
 10
2167.96875
 20
-3115.234375
 10
2177.734375
 20
-3115.234375
 10
2187.5
 20
-3115.234375
 10
2197.265625
 20
-3115.234375
 10
2207.03125
 20
-3115.234375
 10
2216.796875
 20
-3115.234375
 10
2226.5625
 20
-3115.234375
 10
2236.328125
 20
-3115.234375
 10
2246.09375
 20
-3115.234375
 10
2255.859375
 20
-3115.234375
 10
2265.625
 20
-3115.234375
 10
2275.390625
 20
-3115.234375
 10
2285.15625
 20
-3115.234375
 10
2294.921875
 20
-3115.234375
 10
2304.6875
 20
-3115.234375
 10
2314.453125
 20
-3115.234375
 10
2324.21875
 20
-3115.234375
 10
2333.984375
 20
-3115.234375
 10
2343.75
 20
-3125.0
 10
2343.75
 20
-3134.765625
 10
2343.75
 20
-3144.53125
 10
2343.75
 20
-3154.296875
 10
2343.75
 20
-3164.0625
 10
2343.75
 20
-3173.828125
 10
2343.75
 20
-3183.59375
 10
2343.75
 20
-3193.359375
 10
2353.515625
 20
-3193.359375
 10
2363.28125
 20
-3193.359375
 10
2373.046875
 20
-3193.359375
 10
2382.8125
 20
-3193.359375
 10
2392.578125
 20
-3193.359375
 10
2402.34375
 20
-3193.359375
 10
2412.109375
 20
-3193.359375
 10
2421.875
 20
-3193.359375
 10
2431.640625
 20
-3193.359375
 10
2441.40625
 20
-3193.359375
 10
2451.171875
 20
-3193.359375
 10
2460.9375
 20
-3193.359375
 10
2470.703125
 20
-3193.359375
 10
2480.46875
 20
-3193.359375
 10
2490.234375
 20
-3193.359375
 10
2500.0
 20
-3193.359375
 10
2509.765625
 20
-3193.359375
 10
2519.53125
 20
-3193.359375
 10
2529.296875
 20
-3193.359375
 10
2539.0625
 20
-3193.359375
 10
2548.828125
 20
-3193.359375
 10
2558.59375
 20
-3193.359375
 10
2568.359375
 20
-3193.359375
 10
2568.359375
 20
-3183.59375
 10
2568.359375
 20
-3173.828125
 10
2568.359375
 20
-3164.0625
 10
2568.359375
 20
-3154.296875
 10
2568.359375
 20
-3144.53125
 10
2568.359375
 20
-3134.765625
 10
2568.359375
 20
-3125.0
 10
2578.125
 20
-3115.234375
 10
2587.890625
 20
-3115.234375
 10
2597.65625
 20
-3115.234375
 10
2607.421875
 20
-3115.234375
 10
2617.1875
 20
-3115.234375
 10
2626.953125
 20
-3115.234375
 10
2636.71875
 20
-3115.234375
 10
2646.484375
 20
-3115.234375
 10
2656.25
 20
-3115.234375
 10
2666.015625
 20
-3115.234375
 10
2675.78125
 20
-3115.234375
 10
2685.546875
 20
-3115.234375
 10
2695.3125
 20
-3115.234375
 10
2705.078125
 20
-3115.234375
 10
2714.84375
 20
-3115.234375
 10
2724.609375
 20
-3115.234375
 10
2734.375
 20
-3115.234375
 10
2744.140625
 20
-3115.234375
 10
2753.90625
 20
-3115.234375
 10
2763.671875
 20
-3115.234375
 10
2773.4375
 20
-3115.234375
 10
2783.203125
 20
-3115.234375
 10
2792.96875
 20
-3115.234375
 10
2802.734375
 20
-3115.234375
 10
2812.5
 20
-3115.234375
 10
2822.265625
 20
-3115.234375
 10
2832.03125
 20
-3115.234375
 10
2841.796875
 20
-3115.234375
 10
2851.5625
 20
-3115.234375
 10
2861.328125
 20
-3115.234375
 10
2871.09375
 20
-3115.234375
 10
2880.859375
 20
-3115.234375
 10
2880.859375
 20
-3105.46875
 10
2880.859375
 20
-3095.703125
 10
2880.859375
 20
-3085.9375
 10
2880.859375
 20
-3076.171875
 10
2880.859375
 20
-3066.40625
 10
2880.859375
 20
-3056.640625
 10
2880.859375
 20
-3046.875
 10
2890.625
 20
-3037.109375
 10
2900.390625
 20
-3037.109375
 10
2910.15625
 20
-3037.109375
 10
2919.921875
 20
-3037.109375
 10
2929.6875
 20
-3037.109375
 10
2939.453125
 20
-3037.109375
 10
2949.21875
 20
-3037.109375
 10
2958.984375
 20
-3037.109375
 10
2958.984375
 20
-3027.34375
 10
2958.984375
 20
-3017.578125
 10
2958.984375
 20
-3007.8125
 10
2958.984375
 20
-2998.046875
 10
2958.984375
 20
-2988.28125
 10
2958.984375
 20
-2978.515625
 10
2958.984375
 20
-2968.75
 10
2968.75
 20
-2958.984375
 10
2978.515625
 20
-2958.984375
 10
2988.28125
 20
-2958.984375
 10
2998.046875
 20
-2958.984375
 10
3007.8125
 20
-2958.984375
 10
3017.578125
 20
-2958.984375
 10
3027.34375
 20
-2958.984375
 10
3037.109375
 20
-2958.984375
 10
3037.109375
 20
-2949.21875
 10
3037.109375
 20
-2939.453125
 10
3037.109375
 20
-2929.6875
 10
3037.109375
 20
-2919.921875
 10
3037.109375
 20
-2910.15625
 10
3037.109375
 20
-2900.390625
 10
3037.109375
 20
-2890.625
 10
3046.875
 20
-2880.859375
 10
3056.640625
 20
-2880.859375
 10
3066.40625
 20
-2880.859375
 10
3076.171875
 20
-2880.859375
 10
3085.9375
 20
-2880.859375
 10
3095.703125
 20
-2880.859375
 10
3105.46875
 20
-2880.859375
 10
3115.234375
 20
-2880.859375
 10
3115.234375
 20
-2871.09375
 10
3115.234375
 20
-2861.328125
 10
3115.234375
 20
-2851.5625
 10
3115.234375
 20
-2841.796875
 10
3115.234375
 20
-2832.03125
 10
3115.234375
 20
-2822.265625
 10
3115.234375
 20
-2812.5
 10
3115.234375
 20
-2802.734375
 10
3115.234375
 20
-2792.96875
 10
3115.234375
 20
-2783.203125
 10
3115.234375
 20
-2773.4375
 10
3115.234375
 20
-2763.671875
 10
3115.234375
 20
-2753.90625
 10
3115.234375
 20
-2744.140625
 10
3115.234375
 20
-2734.375
 10
3115.234375
 20
-2724.609375
 10
3115.234375
 20
-2714.84375
 10
3115.234375
 20
-2705.078125
 10
3115.234375
 20
-2695.3125
 10
3115.234375
 20
-2685.546875
 10
3115.234375
 20
-2675.78125
 10
3115.234375
 20
-2666.015625
 10
3115.234375
 20
-2656.25
 10
3125.0
 20
-2646.484375
 10
3134.765625
 20
-2646.484375
 10
3144.53125
 20
-2646.484375
 10
3154.296875
 20
-2646.484375
 10
3164.0625
 20
-2646.484375
 10
3173.828125
 20
-2646.484375
 10
3183.59375
 20
-2646.484375
 10
3193.359375
 20
-2646.484375
 10
3193.359375
 20
-2636.71875
 10
3193.359375
 20
-2626.953125
 10
3193.359375
 20
-2617.1875
 10
3193.359375
 20
-2607.421875
 10
3193.359375
 20
-2597.65625
 10
3193.359375
 20
-2587.890625
 10
3193.359375
 20
-2578.125
 10
3193.359375
 20
-2568.359375
 10
3193.359375
 20
-2558.59375
 10
3193.359375
 20
-2548.828125
 10
3193.359375
 20
-2539.0625
 10
3193.359375
 20
-2529.296875
 10
3193.359375
 20
-2519.53125
 10
3193.359375
 20
-2509.765625
 10
3193.359375
 20
-2500.0
 10
3193.359375
 20
-2490.234375
 10
3193.359375
 20
-2480.46875
 10
3193.359375
 20
-2470.703125
 10
3193.359375
 20
-2460.9375
 10
3193.359375
 20
-2451.171875
 10
3193.359375
 20
-2441.40625
 10
3193.359375
 20
-2431.640625
 10
3193.359375
 20
-2421.875
 10
3193.359375
 20
-2412.109375
 10
3193.359375
 20
-2402.34375
 10
3193.359375
 20
-2392.578125
 10
3193.359375
 20
-2382.8125
 10
3193.359375
 20
-2373.046875
 10
3193.359375
 20
-2363.28125
 10
3193.359375
 20
-2353.515625
 10
3193.359375
 20
-2343.75
 10
3183.59375
 20
-2343.75
 10
3173.828125
 20
-2343.75
 10
3164.0625
 20
-2343.75
 10
3154.296875
 20
-2343.75
 10
3144.53125
 20
-2343.75
 10
3134.765625
 20
-2343.75
 10
3125.0
 20
-2343.75
 10
3115.234375
 20
-2333.984375
 10
3115.234375
 20
-2324.21875
 10
3115.234375
 20
-2314.453125
 10
3115.234375
 20
-2304.6875
 10
3115.234375
 20
-2294.921875
 10
3115.234375
 20
-2285.15625
 10
3115.234375
 20
-2275.390625
 10
3115.234375
 20
-2265.625
 10
3115.234375
 20
-2255.859375
 10
3115.234375
 20
-2246.09375
 10
3115.234375
 20
-2236.328125
 10
3115.234375
 20
-2226.5625
 10
3115.234375
 20
-2216.796875
 10
3115.234375
 20
-2207.03125
 10
3115.234375
 20
-2197.265625
 10
3115.234375
 20
-2187.5
 10
3115.234375
 20
-2177.734375
 10
3115.234375
 20
-2167.96875
 10
3115.234375
 20
-2158.203125
 10
3115.234375
 20
-2148.4375
 10
3115.234375
 20
-2138.671875
 10
3115.234375
 20
-2128.90625
 10
3115.234375
 20
-2119.140625
 10
3115.234375
 20
-2109.375
 10
3105.46875
 20
-2109.375
 10
3095.703125
 20
-2109.375
 10
3085.9375
 20
-2109.375
 10
3076.171875
 20
-2109.375
 10
3066.40625
 20
-2109.375
 10
3056.640625
 20
-2109.375
 10
3046.875
 20
-2109.375
 10
3037.109375
 20
-2099.609375
 10
3037.109375
 20
-2089.84375
 10
3037.109375
 20
-2080.078125
 10
3037.109375
 20
-2070.3125
 10
3037.109375
 20
-2060.546875
 10
3037.109375
 20
-2050.78125
 10
3037.109375
 20
-2041.015625
 10
3037.109375
 20
-2031.25
 10
3037.109375
 20
-2021.484375
 10
3037.109375
 20
-2011.71875
 10
3037.109375
 20
-2001.953125
 10
3037.109375
 20
-1992.1875
 10
3037.109375
 20
-1982.421875
 10
3037.109375
 20
-1972.65625
 10
3037.109375
 20
-1962.890625
 10
3037.109375
 20
-1953.125
 10
3027.34375
 20
-1953.125
 10
3017.578125
 20
-1953.125
 10
3007.8125
 20
-1953.125
 10
2998.046875
 20
-1953.125
 10
2988.28125
 20
-1953.125
 10
2978.515625
 20
-1953.125
 10
2968.75
 20
-1953.125
 10
2958.984375
 20
-1943.359375
 10
2958.984375
 20
-1933.59375
 10
2958.984375
 20
-1923.828125
 10
2958.984375
 20
-1914.0625
 10
2958.984375
 20
-1904.296875
 10
2958.984375
 20
-1894.53125
 10
2958.984375
 20
-1884.765625
 10
2958.984375
 20
-1875.0
 10
2949.21875
 20
-1875.0
 10
2939.453125
 20
-1875.0
 10
2929.6875
 20
-1875.0
 10
2919.921875
 20
-1875.0
 10
2910.15625
 20
-1875.0
 10
2900.390625
 20
-1875.0
 10
2890.625
 20
-1875.0
 10
2880.859375
 20
-1875.0
 10
2871.09375
 20
-1875.0
 10
2861.328125
 20
-1875.0
 10
2851.5625
 20
-1875.0
 10
2841.796875
 20
-1875.0
 10
2832.03125
 20
-1875.0
 10
2822.265625
 20
-1875.0
 10
2812.5
 20
-1875.0
 10
2802.734375
 20
-1875.0
 10
2792.96875
 20
-1875.0
 10
2783.203125
 20
-1875.0
 10
2773.4375
 20
-1875.0
 10
2763.671875
 20
-1875.0
 10
2753.90625
 20
-1875.0
 10
2744.140625
 20
-1875.0
 10
2734.375
 20
-1875.0
 10
2724.609375
 20
-1865.234375
 10
2724.609375
 20
-1855.46875
 10
2724.609375
 20
-1845.703125
 10
2724.609375
 20
-1835.9375
 10
2724.609375
 20
-1826.171875
 10
2724.609375
 20
-1816.40625
 10
2724.609375
 20
-1806.640625
 10
2724.609375
 20
-1796.875
 10
2714.84375
 20
-1796.875
 10
2705.078125
 20
-1796.875
 10
2695.3125
 20
-1796.875
 10
2685.546875
 20
-1796.875
 10
2675.78125
 20
-1796.875
 10
2666.015625
 20
-1796.875
 10
2656.25
 20
-1796.875
 10
2646.484375
 20
-1796.875
 10
2636.71875
 20
-1796.875
 10
2626.953125
 20
-1796.875
 10
2617.1875
 20
-1796.875
 10
2607.421875
 20
-1796.875
 10
2597.65625
 20
-1796.875
 10
2587.890625
 20
-1796.875
 10
2578.125
 20
-1796.875
 10
2568.359375
 20
-1796.875
 10
2558.59375
 20
-1796.875
 10
2548.828125
 20
-1796.875
 10
2539.0625
 20
-1796.875
 10
2529.296875
 20
-1796.875
 10
2519.53125
 20
-1796.875
 10
2509.765625
 20
-1796.875
 10
2500.0
 20
-1796.875
 10
2490.234375
 20
-1796.875
 10
2480.46875
 20
-1796.875
 10
2470.703125
 20
-1796.875
 10
2460.9375
 20
-1796.875
 10
2451.171875
 20
-1796.875
 10
2441.40625
 20
-1796.875
 10
2431.640625
 20
-1796.875
 10
2421.875
 20
-1796.875
 10
2412.109375
 20
-1796.875
 10
2402.34375
 20
-1796.875
 10
2392.578125
 20
-1796.875
 10
2382.8125
 20
-1796.875
 10
2373.046875
 20
-1796.875
 10
2363.28125
 20
-1796.875
 10
2353.515625
 20
-1796.875
 10
2343.75
 20
-1796.875
 10
2333.984375
 20
-1796.875
 10
2324.21875
 20
-1796.875
 10
2314.453125
 20
-1796.875
 10
2304.6875
 20
-1796.875
 10
2294.921875
 20
-1796.875
 10
2285.15625
 20
-1796.875
 10
2275.390625
 20
-1796.875
  0
LWPOLYLINE
  5
33
330
17
100
AcDbEntity
  8
substrate
100
AcDbPolyline
 90
2044
 70
1
 43
0.5
 10
0.0
 20
-0.0
 10
0.0
 20
-9.765625
 10
0.0
 20
-19.53125
 10
0.0
 20
-29.296875
 10
0.0
 20
-39.0625
 10
0.0
 20
-48.828125
 10
0.0
 20
-58.59375
 10
0.0
 20
-68.359375
 10
0.0
 20
-78.125
 10
0.0
 20
-87.890625
 10
0.0
 20
-97.65625
 10
0.0
 20
-107.421875
 10
0.0
 20
-117.1875
 10
0.0
 20
-126.953125
 10
0.0
 20
-136.71875
 10
0.0
 20
-146.484375
 10
0.0
 20
-156.25
 10
0.0
 20
-166.015625
 10
0.0
 20
-175.78125
 10
0.0
 20
-185.546875
 10
0.0
 20
-195.3125
 10
0.0
 20
-205.078125
 10
0.0
 20
-214.84375
 10
0.0
 20
-224.609375
 10
0.0
 20
-234.375
 10
0.0
 20
-244.140625
 10
0.0
 20
-253.90625
 10
0.0
 20
-263.671875
 10
0.0
 20
-273.4375
 10
0.0
 20
-283.203125
 10
0.0
 20
-292.96875
 10
0.0
 20
-302.734375
 10
0.0
 20
-312.5
 10
0.0
 20
-322.265625
 10
0.0
 20
-332.03125
 10
0.0
 20
-341.796875
 10
0.0
 20
-351.5625
 10
0.0
 20
-361.328125
 10
0.0
 20
-371.09375
 10
0.0
 20
-380.859375
 10
0.0
 20
-390.625
 10
0.0
 20
-400.390625
 10
0.0
 20
-410.15625
 10
0.0
 20
-419.921875
 10
0.0
 20
-429.6875
 10
0.0
 20
-439.453125
 10
0.0
 20
-449.21875
 10
0.0
 20
-458.984375
 10
0.0
 20
-468.75
 10
0.0
 20
-478.515625
 10
0.0
 20
-488.28125
 10
0.0
 20
-498.046875
 10
0.0
 20
-507.8125
 10
0.0
 20
-517.578125
 10
0.0
 20
-527.34375
 10
0.0
 20
-537.109375
 10
0.0
 20
-546.875
 10
0.0
 20
-556.640625
 10
0.0
 20
-566.40625
 10
0.0
 20
-576.171875
 10
0.0
 20
-585.9375
 10
0.0
 20
-595.703125
 10
0.0
 20
-605.46875
 10
0.0
 20
-615.234375
 10
0.0
 20
-625.0
 10
0.0
 20
-634.765625
 10
0.0
 20
-644.53125
 10
0.0
 20
-654.296875
 10
0.0
 20
-664.0625
 10
0.0
 20
-673.828125
 10
0.0
 20
-683.59375
 10
0.0
 20
-693.359375
 10
0.0
 20
-703.125
 10
0.0
 20
-712.890625
 10
0.0
 20
-722.65625
 10
0.0
 20
-732.421875
 10
0.0
 20
-742.1875
 10
0.0
 20
-751.953125
 10
0.0
 20
-761.71875
 10
0.0
 20
-771.484375
 10
0.0
 20
-781.25
 10
0.0
 20
-791.015625
 10
0.0
 20
-800.78125
 10
0.0
 20
-810.546875
 10
0.0
 20
-820.3125
 10
0.0
 20
-830.078125
 10
0.0
 20
-839.84375
 10
0.0
 20
-849.609375
 10
0.0
 20
-859.375
 10
0.0
 20
-869.140625
 10
0.0
 20
-878.90625
 10
0.0
 20
-888.671875
 10
0.0
 20
-898.4375
 10
0.0
 20
-908.203125
 10
0.0
 20
-917.96875
 10
0.0
 20
-927.734375
 10
0.0
 20
-937.5
 10
0.0
 20
-947.265625
 10
0.0
 20
-957.03125
 10
0.0
 20
-966.796875
 10
0.0
 20
-976.5625
 10
0.0
 20
-986.328125
 10
0.0
 20
-996.09375
 10
0.0
 20
-1005.859375
 10
0.0
 20
-1015.625
 10
0.0
 20
-1025.390625
 10
0.0
 20
-1035.15625
 10
0.0
 20
-1044.921875
 10
0.0
 20
-1054.6875
 10
0.0
 20
-1064.453125
 10
0.0
 20
-1074.21875
 10
0.0
 20
-1083.984375
 10
0.0
 20
-1093.75
 10
0.0
 20
-1103.515625
 10
0.0
 20
-1113.28125
 10
0.0
 20
-1123.046875
 10
0.0
 20
-1132.8125
 10
0.0
 20
-1142.578125
 10
0.0
 20
-1152.34375
 10
0.0
 20
-1162.109375
 10
0.0
 20
-1171.875
 10
0.0
 20
-1181.640625
 10
0.0
 20
-1191.40625
 10
0.0
 20
-1201.171875
 10
0.0
 20
-1210.9375
 10
0.0
 20
-1220.703125
 10
0.0
 20
-1230.46875
 10
0.0
 20
-1240.234375
 10
0.0
 20
-1250.0
 10
0.0
 20
-1259.765625
 10
0.0
 20
-1269.53125
 10
0.0
 20
-1279.296875
 10
0.0
 20
-1289.0625
 10
0.0
 20
-1298.828125
 10
0.0
 20
-1308.59375
 10
0.0
 20
-1318.359375
 10
0.0
 20
-1328.125
 10
0.0
 20
-1337.890625
 10
0.0
 20
-1347.65625
 10
0.0
 20
-1357.421875
 10
0.0
 20
-1367.1875
 10
0.0
 20
-1376.953125
 10
0.0
 20
-1386.71875
 10
0.0
 20
-1396.484375
 10
0.0
 20
-1406.25
 10
0.0
 20
-1416.015625
 10
0.0
 20
-1425.78125
 10
0.0
 20
-1435.546875
 10
0.0
 20
-1445.3125
 10
0.0
 20
-1455.078125
 10
0.0
 20
-1464.84375
 10
0.0
 20
-1474.609375
 10
0.0
 20
-1484.375
 10
0.0
 20
-1494.140625
 10
0.0
 20
-1503.90625
 10
0.0
 20
-1513.671875
 10
0.0
 20
-1523.4375
 10
0.0
 20
-1533.203125
 10
0.0
 20
-1542.96875
 10
0.0
 20
-1552.734375
 10
0.0
 20
-1562.5
 10
0.0
 20
-1572.265625
 10
0.0
 20
-1582.03125
 10
0.0
 20
-1591.796875
 10
0.0
 20
-1601.5625
 10
0.0
 20
-1611.328125
 10
0.0
 20
-1621.09375
 10
0.0
 20
-1630.859375
 10
0.0
 20
-1640.625
 10
0.0
 20
-1650.390625
 10
0.0
 20
-1660.15625
 10
0.0
 20
-1669.921875
 10
0.0
 20
-1679.6875
 10
0.0
 20
-1689.453125
 10
0.0
 20
-1699.21875
 10
0.0
 20
-1708.984375
 10
0.0
 20
-1718.75
 10
0.0
 20
-1728.515625
 10
0.0
 20
-1738.28125
 10
0.0
 20
-1748.046875
 10
0.0
 20
-1757.8125
 10
0.0
 20
-1767.578125
 10
0.0
 20
-1777.34375
 10
0.0
 20
-1787.109375
 10
0.0
 20
-1796.875
 10
0.0
 20
-1806.640625
 10
0.0
 20
-1816.40625
 10
0.0
 20
-1826.171875
 10
0.0
 20
-1835.9375
 10
0.0
 20
-1845.703125
 10
0.0
 20
-1855.46875
 10
0.0
 20
-1865.234375
 10
0.0
 20
-1875.0
 10
0.0
 20
-1884.765625
 10
0.0
 20
-1894.53125
 10
0.0
 20
-1904.296875
 10
0.0
 20
-1914.0625
 10
0.0
 20
-1923.828125
 10
0.0
 20
-1933.59375
 10
0.0
 20
-1943.359375
 10
0.0
 20
-1953.125
 10
0.0
 20
-1962.890625
 10
0.0
 20
-1972.65625
 10
0.0
 20
-1982.421875
 10
0.0
 20
-1992.1875
 10
0.0
 20
-2001.953125
 10
0.0
 20
-2011.71875
 10
0.0
 20
-2021.484375
 10
0.0
 20
-2031.25
 10
0.0
 20
-2041.015625
 10
0.0
 20
-2050.78125
 10
0.0
 20
-2060.546875
 10
0.0
 20
-2070.3125
 10
0.0
 20
-2080.078125
 10
0.0
 20
-2089.84375
 10
0.0
 20
-2099.609375
 10
0.0
 20
-2109.375
 10
0.0
 20
-2119.140625
 10
0.0
 20
-2128.90625
 10
0.0
 20
-2138.671875
 10
0.0
 20
-2148.4375
 10
0.0
 20
-2158.203125
 10
0.0
 20
-2167.96875
 10
0.0
 20
-2177.734375
 10
0.0
 20
-2187.5
 10
0.0
 20
-2197.265625
 10
0.0
 20
-2207.03125
 10
0.0
 20
-2216.796875
 10
0.0
 20
-2226.5625
 10
0.0
 20
-2236.328125
 10
0.0
 20
-2246.09375
 10
0.0
 20
-2255.859375
 10
0.0
 20
-2265.625
 10
0.0
 20
-2275.390625
 10
0.0
 20
-2285.15625
 10
0.0
 20
-2294.921875
 10
0.0
 20
-2304.6875
 10
0.0
 20
-2314.453125
 10
0.0
 20
-2324.21875
 10
0.0
 20
-2333.984375
 10
0.0
 20
-2343.75
 10
0.0
 20
-2353.515625
 10
0.0
 20
-2363.28125
 10
0.0
 20
-2373.046875
 10
0.0
 20
-2382.8125
 10
0.0
 20
-2392.578125
 10
0.0
 20
-2402.34375
 10
0.0
 20
-2412.109375
 10
0.0
 20
-2421.875
 10
0.0
 20
-2431.640625
 10
0.0
 20
-2441.40625
 10
0.0
 20
-2451.171875
 10
0.0
 20
-2460.9375
 10
0.0
 20
-2470.703125
 10
0.0
 20
-2480.46875
 10
0.0
 20
-2490.234375
 10
0.0
 20
-2500.0
 10
0.0
 20
-2509.765625
 10
0.0
 20
-2519.53125
 10
0.0
 20
-2529.296875
 10
0.0
 20
-2539.0625
 10
0.0
 20
-2548.828125
 10
0.0
 20
-2558.59375
 10
0.0
 20
-2568.359375
 10
0.0
 20
-2578.125
 10
0.0
 20
-2587.890625
 10
0.0
 20
-2597.65625
 10
0.0
 20
-2607.421875
 10
0.0
 20
-2617.1875
 10
0.0
 20
-2626.953125
 10
0.0
 20
-2636.71875
 10
0.0
 20
-2646.484375
 10
0.0
 20
-2656.25
 10
0.0
 20
-2666.015625
 10
0.0
 20
-2675.78125
 10
0.0
 20
-2685.546875
 10
0.0
 20
-2695.3125
 10
0.0
 20
-2705.078125
 10
0.0
 20
-2714.84375
 10
0.0
 20
-2724.609375
 10
0.0
 20
-2734.375
 10
0.0
 20
-2744.140625
 10
0.0
 20
-2753.90625
 10
0.0
 20
-2763.671875
 10
0.0
 20
-2773.4375
 10
0.0
 20
-2783.203125
 10
0.0
 20
-2792.96875
 10
0.0
 20
-2802.734375
 10
0.0
 20
-2812.5
 10
0.0
 20
-2822.265625
 10
0.0
 20
-2832.03125
 10
0.0
 20
-2841.796875
 10
0.0
 20
-2851.5625
 10
0.0
 20
-2861.328125
 10
0.0
 20
-2871.09375
 10
0.0
 20
-2880.859375
 10
0.0
 20
-2890.625
 10
0.0
 20
-2900.390625
 10
0.0
 20
-2910.15625
 10
0.0
 20
-2919.921875
 10
0.0
 20
-2929.6875
 10
0.0
 20
-2939.453125
 10
0.0
 20
-2949.21875
 10
0.0
 20
-2958.984375
 10
0.0
 20
-2968.75
 10
0.0
 20
-2978.515625
 10
0.0
 20
-2988.28125
 10
0.0
 20
-2998.046875
 10
0.0
 20
-3007.8125
 10
0.0
 20
-3017.578125
 10
0.0
 20
-3027.34375
 10
0.0
 20
-3037.109375
 10
0.0
 20
-3046.875
 10
0.0
 20
-3056.640625
 10
0.0
 20
-3066.40625
 10
0.0
 20
-3076.171875
 10
0.0
 20
-3085.9375
 10
0.0
 20
-3095.703125
 10
0.0
 20
-3105.46875
 10
0.0
 20
-3115.234375
 10
0.0
 20
-3125.0
 10
0.0
 20
-3134.765625
 10
0.0
 20
-3144.53125
 10
0.0
 20
-3154.296875
 10
0.0
 20
-3164.0625
 10
0.0
 20
-3173.828125
 10
0.0
 20
-3183.59375
 10
0.0
 20
-3193.359375
 10
0.0
 20
-3203.125
 10
0.0
 20
-3212.890625
 10
0.0
 20
-3222.65625
 10
0.0
 20
-3232.421875
 10
0.0
 20
-3242.1875
 10
0.0
 20
-3251.953125
 10
0.0
 20
-3261.71875
 10
0.0
 20
-3271.484375
 10
0.0
 20
-3281.25
 10
0.0
 20
-3291.015625
 10
0.0
 20
-3300.78125
 10
0.0
 20
-3310.546875
 10
0.0
 20
-3320.3125
 10
0.0
 20
-3330.078125
 10
0.0
 20
-3339.84375
 10
0.0
 20
-3349.609375
 10
0.0
 20
-3359.375
 10
0.0
 20
-3369.140625
 10
0.0
 20
-3378.90625
 10
0.0
 20
-3388.671875
 10
0.0
 20
-3398.4375
 10
0.0
 20
-3408.203125
 10
0.0
 20
-3417.96875
 10
0.0
 20
-3427.734375
 10
0.0
 20
-3437.5
 10
0.0
 20
-3447.265625
 10
0.0
 20
-3457.03125
 10
0.0
 20
-3466.796875
 10
0.0
 20
-3476.5625
 10
0.0
 20
-3486.328125
 10
0.0
 20
-3496.09375
 10
0.0
 20
-3505.859375
 10
0.0
 20
-3515.625
 10
0.0
 20
-3525.390625
 10
0.0
 20
-3535.15625
 10
0.0
 20
-3544.921875
 10
0.0
 20
-3554.6875
 10
0.0
 20
-3564.453125
 10
0.0
 20
-3574.21875
 10
0.0
 20
-3583.984375
 10
0.0
 20
-3593.75
 10
0.0
 20
-3603.515625
 10
0.0
 20
-3613.28125
 10
0.0
 20
-3623.046875
 10
0.0
 20
-3632.8125
 10
0.0
 20
-3642.578125
 10
0.0
 20
-3652.34375
 10
0.0
 20
-3662.109375
 10
0.0
 20
-3671.875
 10
0.0
 20
-3681.640625
 10
0.0
 20
-3691.40625
 10
0.0
 20
-3701.171875
 10
0.0
 20
-3710.9375
 10
0.0
 20
-3720.703125
 10
0.0
 20
-3730.46875
 10
0.0
 20
-3740.234375
 10
0.0
 20
-3750.0
 10
0.0
 20
-3759.765625
 10
0.0
 20
-3769.53125
 10
0.0
 20
-3779.296875
 10
0.0
 20
-3789.0625
 10
0.0
 20
-3798.828125
 10
0.0
 20
-3808.59375
 10
0.0
 20
-3818.359375
 10
0.0
 20
-3828.125
 10
0.0
 20
-3837.890625
 10
0.0
 20
-3847.65625
 10
0.0
 20
-3857.421875
 10
0.0
 20
-3867.1875
 10
0.0
 20
-3876.953125
 10
0.0
 20
-3886.71875
 10
0.0
 20
-3896.484375
 10
0.0
 20
-3906.25
 10
0.0
 20
-3916.015625
 10
0.0
 20
-3925.78125
 10
0.0
 20
-3935.546875
 10
0.0
 20
-3945.3125
 10
0.0
 20
-3955.078125
 10
0.0
 20
-3964.84375
 10
0.0
 20
-3974.609375
 10
0.0
 20
-3984.375
 10
0.0
 20
-3994.140625
 10
0.0
 20
-4003.90625
 10
0.0
 20
-4013.671875
 10
0.0
 20
-4023.4375
 10
0.0
 20
-4033.203125
 10
0.0
 20
-4042.96875
 10
0.0
 20
-4052.734375
 10
0.0
 20
-4062.5
 10
0.0
 20
-4072.265625
 10
0.0
 20
-4082.03125
 10
0.0
 20
-4091.796875
 10
0.0
 20
-4101.5625
 10
0.0
 20
-4111.328125
 10
0.0
 20
-4121.09375
 10
0.0
 20
-4130.859375
 10
0.0
 20
-4140.625
 10
0.0
 20
-4150.390625
 10
0.0
 20
-4160.15625
 10
0.0
 20
-4169.921875
 10
0.0
 20
-4179.6875
 10
0.0
 20
-4189.453125
 10
0.0
 20
-4199.21875
 10
0.0
 20
-4208.984375
 10
0.0
 20
-4218.75
 10
0.0
 20
-4228.515625
 10
0.0
 20
-4238.28125
 10
0.0
 20
-4248.046875
 10
0.0
 20
-4257.8125
 10
0.0
 20
-4267.578125
 10
0.0
 20
-4277.34375
 10
0.0
 20
-4287.109375
 10
0.0
 20
-4296.875
 10
0.0
 20
-4306.640625
 10
0.0
 20
-4316.40625
 10
0.0
 20
-4326.171875
 10
0.0
 20
-4335.9375
 10
0.0
 20
-4345.703125
 10
0.0
 20
-4355.46875
 10
0.0
 20
-4365.234375
 10
0.0
 20
-4375.0
 10
0.0
 20
-4384.765625
 10
0.0
 20
-4394.53125
 10
0.0
 20
-4404.296875
 10
0.0
 20
-4414.0625
 10
0.0
 20
-4423.828125
 10
0.0
 20
-4433.59375
 10
0.0
 20
-4443.359375
 10
0.0
 20
-4453.125
 10
0.0
 20
-4462.890625
 10
0.0
 20
-4472.65625
 10
0.0
 20
-4482.421875
 10
0.0
 20
-4492.1875
 10
0.0
 20
-4501.953125
 10
0.0
 20
-4511.71875
 10
0.0
 20
-4521.484375
 10
0.0
 20
-4531.25
 10
0.0
 20
-4541.015625
 10
0.0
 20
-4550.78125
 10
0.0
 20
-4560.546875
 10
0.0
 20
-4570.3125
 10
0.0
 20
-4580.078125
 10
0.0
 20
-4589.84375
 10
0.0
 20
-4599.609375
 10
0.0
 20
-4609.375
 10
0.0
 20
-4619.140625
 10
0.0
 20
-4628.90625
 10
0.0
 20
-4638.671875
 10
0.0
 20
-4648.4375
 10
0.0
 20
-4658.203125
 10
0.0
 20
-4667.96875
 10
0.0
 20
-4677.734375
 10
0.0
 20
-4687.5
 10
0.0
 20
-4697.265625
 10
0.0
 20
-4707.03125
 10
0.0
 20
-4716.796875
 10
0.0
 20
-4726.5625
 10
0.0
 20
-4736.328125
 10
0.0
 20
-4746.09375
 10
0.0
 20
-4755.859375
 10
0.0
 20
-4765.625
 10
0.0
 20
-4775.390625
 10
0.0
 20
-4785.15625
 10
0.0
 20
-4794.921875
 10
0.0
 20
-4804.6875
 10
0.0
 20
-4814.453125
 10
0.0
 20
-4824.21875
 10
0.0
 20
-4833.984375
 10
0.0
 20
-4843.75
 10
0.0
 20
-4853.515625
 10
0.0
 20
-4863.28125
 10
0.0
 20
-4873.046875
 10
0.0
 20
-4882.8125
 10
0.0
 20
-4892.578125
 10
0.0
 20
-4902.34375
 10
0.0
 20
-4912.109375
 10
0.0
 20
-4921.875
 10
0.0
 20
-4931.640625
 10
0.0
 20
-4941.40625
 10
0.0
 20
-4951.171875
 10
0.0
 20
-4960.9375
 10
0.0
 20
-4970.703125
 10
0.0
 20
-4980.46875
 10
0.0
 20
-4990.234375
 10
9.765625
 20
-4990.234375
 10
19.53125
 20
-4990.234375
 10
29.296875
 20
-4990.234375
 10
39.0625
 20
-4990.234375
 10
48.828125
 20
-4990.234375
 10
58.59375
 20
-4990.234375
 10
68.359375
 20
-4990.234375
 10
78.125
 20
-4990.234375
 10
87.890625
 20
-4990.234375
 10
97.65625
 20
-4990.234375
 10
107.421875
 20
-4990.234375
 10
117.1875
 20
-4990.234375
 10
126.953125
 20
-4990.234375
 10
136.71875
 20
-4990.234375
 10
146.484375
 20
-4990.234375
 10
156.25
 20
-4990.234375
 10
166.015625
 20
-4990.234375
 10
175.78125
 20
-4990.234375
 10
185.546875
 20
-4990.234375
 10
195.3125
 20
-4990.234375
 10
205.078125
 20
-4990.234375
 10
214.84375
 20
-4990.234375
 10
224.609375
 20
-4990.234375
 10
234.375
 20
-4990.234375
 10
244.140625
 20
-4990.234375
 10
253.90625
 20
-4990.234375
 10
263.671875
 20
-4990.234375
 10
273.4375
 20
-4990.234375
 10
283.203125
 20
-4990.234375
 10
292.96875
 20
-4990.234375
 10
302.734375
 20
-4990.234375
 10
312.5
 20
-4990.234375
 10
322.265625
 20
-4990.234375
 10
332.03125
 20
-4990.234375
 10
341.796875
 20
-4990.234375
 10
351.5625
 20
-4990.234375
 10
361.328125
 20
-4990.234375
 10
371.09375
 20
-4990.234375
 10
380.859375
 20
-4990.234375
 10
390.625
 20
-4990.234375
 10
400.390625
 20
-4990.234375
 10
410.15625
 20
-4990.234375
 10
419.921875
 20
-4990.234375
 10
429.6875
 20
-4990.234375
 10
439.453125
 20
-4990.234375
 10
449.21875
 20
-4990.234375
 10
458.984375
 20
-4990.234375
 10
468.75
 20
-4990.234375
 10
478.515625
 20
-4990.234375
 10
488.28125
 20
-4990.234375
 10
498.046875
 20
-4990.234375
 10
507.8125
 20
-4990.234375
 10
517.578125
 20
-4990.234375
 10
527.34375
 20
-4990.234375
 10
537.109375
 20
-4990.234375
 10
546.875
 20
-4990.234375
 10
556.640625
 20
-4990.234375
 10
566.40625
 20
-4990.234375
 10
576.171875
 20
-4990.234375
 10
585.9375
 20
-4990.234375
 10
595.703125
 20
-4990.234375
 10
605.46875
 20
-4990.234375
 10
615.234375
 20
-4990.234375
 10
625.0
 20
-4990.234375
 10
634.765625
 20
-4990.234375
 10
644.53125
 20
-4990.234375
 10
654.296875
 20
-4990.234375
 10
664.0625
 20
-4990.234375
 10
673.828125
 20
-4990.234375
 10
683.59375
 20
-4990.234375
 10
693.359375
 20
-4990.234375
 10
703.125
 20
-4990.234375
 10
712.890625
 20
-4990.234375
 10
722.65625
 20
-4990.234375
 10
732.421875
 20
-4990.234375
 10
742.1875
 20
-4990.234375
 10
751.953125
 20
-4990.234375
 10
761.71875
 20
-4990.234375
 10
771.484375
 20
-4990.234375
 10
781.25
 20
-4990.234375
 10
791.015625
 20
-4990.234375
 10
800.78125
 20
-4990.234375
 10
810.546875
 20
-4990.234375
 10
820.3125
 20
-4990.234375
 10
830.078125
 20
-4990.234375
 10
839.84375
 20
-4990.234375
 10
849.609375
 20
-4990.234375
 10
859.375
 20
-4990.234375
 10
869.140625
 20
-4990.234375
 10
878.90625
 20
-4990.234375
 10
888.671875
 20
-4990.234375
 10
898.4375
 20
-4990.234375
 10
908.203125
 20
-4990.234375
 10
917.96875
 20
-4990.234375
 10
927.734375
 20
-4990.234375
 10
937.5
 20
-4990.234375
 10
947.265625
 20
-4990.234375
 10
957.03125
 20
-4990.234375
 10
966.796875
 20
-4990.234375
 10
976.5625
 20
-4990.234375
 10
986.328125
 20
-4990.234375
 10
996.09375
 20
-4990.234375
 10
1005.859375
 20
-4990.234375
 10
1015.625
 20
-4990.234375
 10
1025.390625
 20
-4990.234375
 10
1035.15625
 20
-4990.234375
 10
1044.921875
 20
-4990.234375
 10
1054.6875
 20
-4990.234375
 10
1064.453125
 20
-4990.234375
 10
1074.21875
 20
-4990.234375
 10
1083.984375
 20
-4990.234375
 10
1093.75
 20
-4990.234375
 10
1103.515625
 20
-4990.234375
 10
1113.28125
 20
-4990.234375
 10
1123.046875
 20
-4990.234375
 10
1132.8125
 20
-4990.234375
 10
1142.578125
 20
-4990.234375
 10
1152.34375
 20
-4990.234375
 10
1162.109375
 20
-4990.234375
 10
1171.875
 20
-4990.234375
 10
1181.640625
 20
-4990.234375
 10
1191.40625
 20
-4990.234375
 10
1201.171875
 20
-4990.234375
 10
1210.9375
 20
-4990.234375
 10
1220.703125
 20
-4990.234375
 10
1230.46875
 20
-4990.234375
 10
1240.234375
 20
-4990.234375
 10
1250.0
 20
-4990.234375
 10
1259.765625
 20
-4990.234375
 10
1269.53125
 20
-4990.234375
 10
1279.296875
 20
-4990.234375
 10
1289.0625
 20
-4990.234375
 10
1298.828125
 20
-4990.234375
 10
1308.59375
 20
-4990.234375
 10
1318.359375
 20
-4990.234375
 10
1328.125
 20
-4990.234375
 10
1337.890625
 20
-4990.234375
 10
1347.65625
 20
-4990.234375
 10
1357.421875
 20
-4990.234375
 10
1367.1875
 20
-4990.234375
 10
1376.953125
 20
-4990.234375
 10
1386.71875
 20
-4990.234375
 10
1396.484375
 20
-4990.234375
 10
1406.25
 20
-4990.234375
 10
1416.015625
 20
-4990.234375
 10
1425.78125
 20
-4990.234375
 10
1435.546875
 20
-4990.234375
 10
1445.3125
 20
-4990.234375
 10
1455.078125
 20
-4990.234375
 10
1464.84375
 20
-4990.234375
 10
1474.609375
 20
-4990.234375
 10
1484.375
 20
-4990.234375
 10
1494.140625
 20
-4990.234375
 10
1503.90625
 20
-4990.234375
 10
1513.671875
 20
-4990.234375
 10
1523.4375
 20
-4990.234375
 10
1533.203125
 20
-4990.234375
 10
1542.96875
 20
-4990.234375
 10
1552.734375
 20
-4990.234375
 10
1562.5
 20
-4990.234375
 10
1572.265625
 20
-4990.234375
 10
1582.03125
 20
-4990.234375
 10
1591.796875
 20
-4990.234375
 10
1601.5625
 20
-4990.234375
 10
1611.328125
 20
-4990.234375
 10
1621.09375
 20
-4990.234375
 10
1630.859375
 20
-4990.234375
 10
1640.625
 20
-4990.234375
 10
1650.390625
 20
-4990.234375
 10
1660.15625
 20
-4990.234375
 10
1669.921875
 20
-4990.234375
 10
1679.6875
 20
-4990.234375
 10
1689.453125
 20
-4990.234375
 10
1699.21875
 20
-4990.234375
 10
1708.984375
 20
-4990.234375
 10
1718.75
 20
-4990.234375
 10
1728.515625
 20
-4990.234375
 10
1738.28125
 20
-4990.234375
 10
1748.046875
 20
-4990.234375
 10
1757.8125
 20
-4990.234375
 10
1767.578125
 20
-4990.234375
 10
1777.34375
 20
-4990.234375
 10
1787.109375
 20
-4990.234375
 10
1796.875
 20
-4990.234375
 10
1806.640625
 20
-4990.234375
 10
1816.40625
 20
-4990.234375
 10
1826.171875
 20
-4990.234375
 10
1835.9375
 20
-4990.234375
 10
1845.703125
 20
-4990.234375
 10
1855.46875
 20
-4990.234375
 10
1865.234375
 20
-4990.234375
 10
1875.0
 20
-4990.234375
 10
1884.765625
 20
-4990.234375
 10
1894.53125
 20
-4990.234375
 10
1904.296875
 20
-4990.234375
 10
1914.0625
 20
-4990.234375
 10
1923.828125
 20
-4990.234375
 10
1933.59375
 20
-4990.234375
 10
1943.359375
 20
-4990.234375
 10
1953.125
 20
-4990.234375
 10
1962.890625
 20
-4990.234375
 10
1972.65625
 20
-4990.234375
 10
1982.421875
 20
-4990.234375
 10
1992.1875
 20
-4990.234375
 10
2001.953125
 20
-4990.234375
 10
2011.71875
 20
-4990.234375
 10
2021.484375
 20
-4990.234375
 10
2031.25
 20
-4990.234375
 10
2041.015625
 20
-4990.234375
 10
2050.78125
 20
-4990.234375
 10
2060.546875
 20
-4990.234375
 10
2070.3125
 20
-4990.234375
 10
2080.078125
 20
-4990.234375
 10
2089.84375
 20
-4990.234375
 10
2099.609375
 20
-4990.234375
 10
2109.375
 20
-4990.234375
 10
2119.140625
 20
-4990.234375
 10
2128.90625
 20
-4990.234375
 10
2138.671875
 20
-4990.234375
 10
2148.4375
 20
-4990.234375
 10
2158.203125
 20
-4990.234375
 10
2167.96875
 20
-4990.234375
 10
2177.734375
 20
-4990.234375
 10
2187.5
 20
-4990.234375
 10
2197.265625
 20
-4990.234375
 10
2207.03125
 20
-4990.234375
 10
2216.796875
 20
-4990.234375
 10
2226.5625
 20
-4990.234375
 10
2236.328125
 20
-4990.234375
 10
2246.09375
 20
-4990.234375
 10
2255.859375
 20
-4990.234375
 10
2265.625
 20
-4990.234375
 10
2275.390625
 20
-4990.234375
 10
2285.15625
 20
-4990.234375
 10
2294.921875
 20
-4990.234375
 10
2304.6875
 20
-4990.234375
 10
2314.453125
 20
-4990.234375
 10
2324.21875
 20
-4990.234375
 10
2333.984375
 20
-4990.234375
 10
2343.75
 20
-4990.234375
 10
2353.515625
 20
-4990.234375
 10
2363.28125
 20
-4990.234375
 10
2373.046875
 20
-4990.234375
 10
2382.8125
 20
-4990.234375
 10
2392.578125
 20
-4990.234375
 10
2402.34375
 20
-4990.234375
 10
2412.109375
 20
-4990.234375
 10
2421.875
 20
-4990.234375
 10
2431.640625
 20
-4990.234375
 10
2441.40625
 20
-4990.234375
 10
2451.171875
 20
-4990.234375
 10
2460.9375
 20
-4990.234375
 10
2470.703125
 20
-4990.234375
 10
2480.46875
 20
-4990.234375
 10
2490.234375
 20
-4990.234375
 10
2500.0
 20
-4990.234375
 10
2509.765625
 20
-4990.234375
 10
2519.53125
 20
-4990.234375
 10
2529.296875
 20
-4990.234375
 10
2539.0625
 20
-4990.234375
 10
2548.828125
 20
-4990.234375
 10
2558.59375
 20
-4990.234375
 10
2568.359375
 20
-4990.234375
 10
2578.125
 20
-4990.234375
 10
2587.890625
 20
-4990.234375
 10
2597.65625
 20
-4990.234375
 10
2607.421875
 20
-4990.234375
 10
2617.1875
 20
-4990.234375
 10
2626.953125
 20
-4990.234375
 10
2636.71875
 20
-4990.234375
 10
2646.484375
 20
-4990.234375
 10
2656.25
 20
-4990.234375
 10
2666.015625
 20
-4990.234375
 10
2675.78125
 20
-4990.234375
 10
2685.546875
 20
-4990.234375
 10
2695.3125
 20
-4990.234375
 10
2705.078125
 20
-4990.234375
 10
2714.84375
 20
-4990.234375
 10
2724.609375
 20
-4990.234375
 10
2734.375
 20
-4990.234375
 10
2744.140625
 20
-4990.234375
 10
2753.90625
 20
-4990.234375
 10
2763.671875
 20
-4990.234375
 10
2773.4375
 20
-4990.234375
 10
2783.203125
 20
-4990.234375
 10
2792.96875
 20
-4990.234375
 10
2802.734375
 20
-4990.234375
 10
2812.5
 20
-4990.234375
 10
2822.265625
 20
-4990.234375
 10
2832.03125
 20
-4990.234375
 10
2841.796875
 20
-4990.234375
 10
2851.5625
 20
-4990.234375
 10
2861.328125
 20
-4990.234375
 10
2871.09375
 20
-4990.234375
 10
2880.859375
 20
-4990.234375
 10
2890.625
 20
-4990.234375
 10
2900.390625
 20
-4990.234375
 10
2910.15625
 20
-4990.234375
 10
2919.921875
 20
-4990.234375
 10
2929.6875
 20
-4990.234375
 10
2939.453125
 20
-4990.234375
 10
2949.21875
 20
-4990.234375
 10
2958.984375
 20
-4990.234375
 10
2968.75
 20
-4990.234375
 10
2978.515625
 20
-4990.234375
 10
2988.28125
 20
-4990.234375
 10
2998.046875
 20
-4990.234375
 10
3007.8125
 20
-4990.234375
 10
3017.578125
 20
-4990.234375
 10
3027.34375
 20
-4990.234375
 10
3037.109375
 20
-4990.234375
 10
3046.875
 20
-4990.234375
 10
3056.640625
 20
-4990.234375
 10
3066.40625
 20
-4990.234375
 10
3076.171875
 20
-4990.234375
 10
3085.9375
 20
-4990.234375
 10
3095.703125
 20
-4990.234375
 10
3105.46875
 20
-4990.234375
 10
3115.234375
 20
-4990.234375
 10
3125.0
 20
-4990.234375
 10
3134.765625
 20
-4990.234375
 10
3144.53125
 20
-4990.234375
 10
3154.296875
 20
-4990.234375
 10
3164.0625
 20
-4990.234375
 10
3173.828125
 20
-4990.234375
 10
3183.59375
 20
-4990.234375
 10
3193.359375
 20
-4990.234375
 10
3203.125
 20
-4990.234375
 10
3212.890625
 20
-4990.234375
 10
3222.65625
 20
-4990.234375
 10
3232.421875
 20
-4990.234375
 10
3242.1875
 20
-4990.234375
 10
3251.953125
 20
-4990.234375
 10
3261.71875
 20
-4990.234375
 10
3271.484375
 20
-4990.234375
 10
3281.25
 20
-4990.234375
 10
3291.015625
 20
-4990.234375
 10
3300.78125
 20
-4990.234375
 10
3310.546875
 20
-4990.234375
 10
3320.3125
 20
-4990.234375
 10
3330.078125
 20
-4990.234375
 10
3339.84375
 20
-4990.234375
 10
3349.609375
 20
-4990.234375
 10
3359.375
 20
-4990.234375
 10
3369.140625
 20
-4990.234375
 10
3378.90625
 20
-4990.234375
 10
3388.671875
 20
-4990.234375
 10
3398.4375
 20
-4990.234375
 10
3408.203125
 20
-4990.234375
 10
3417.96875
 20
-4990.234375
 10
3427.734375
 20
-4990.234375
 10
3437.5
 20
-4990.234375
 10
3447.265625
 20
-4990.234375
 10
3457.03125
 20
-4990.234375
 10
3466.796875
 20
-4990.234375
 10
3476.5625
 20
-4990.234375
 10
3486.328125
 20
-4990.234375
 10
3496.09375
 20
-4990.234375
 10
3505.859375
 20
-4990.234375
 10
3515.625
 20
-4990.234375
 10
3525.390625
 20
-4990.234375
 10
3535.15625
 20
-4990.234375
 10
3544.921875
 20
-4990.234375
 10
3554.6875
 20
-4990.234375
 10
3564.453125
 20
-4990.234375
 10
3574.21875
 20
-4990.234375
 10
3583.984375
 20
-4990.234375
 10
3593.75
 20
-4990.234375
 10
3603.515625
 20
-4990.234375
 10
3613.28125
 20
-4990.234375
 10
3623.046875
 20
-4990.234375
 10
3632.8125
 20
-4990.234375
 10
3642.578125
 20
-4990.234375
 10
3652.34375
 20
-4990.234375
 10
3662.109375
 20
-4990.234375
 10
3671.875
 20
-4990.234375
 10
3681.640625
 20
-4990.234375
 10
3691.40625
 20
-4990.234375
 10
3701.171875
 20
-4990.234375
 10
3710.9375
 20
-4990.234375
 10
3720.703125
 20
-4990.234375
 10
3730.46875
 20
-4990.234375
 10
3740.234375
 20
-4990.234375
 10
3750.0
 20
-4990.234375
 10
3759.765625
 20
-4990.234375
 10
3769.53125
 20
-4990.234375
 10
3779.296875
 20
-4990.234375
 10
3789.0625
 20
-4990.234375
 10
3798.828125
 20
-4990.234375
 10
3808.59375
 20
-4990.234375
 10
3818.359375
 20
-4990.234375
 10
3828.125
 20
-4990.234375
 10
3837.890625
 20
-4990.234375
 10
3847.65625
 20
-4990.234375
 10
3857.421875
 20
-4990.234375
 10
3867.1875
 20
-4990.234375
 10
3876.953125
 20
-4990.234375
 10
3886.71875
 20
-4990.234375
 10
3896.484375
 20
-4990.234375
 10
3906.25
 20
-4990.234375
 10
3916.015625
 20
-4990.234375
 10
3925.78125
 20
-4990.234375
 10
3935.546875
 20
-4990.234375
 10
3945.3125
 20
-4990.234375
 10
3955.078125
 20
-4990.234375
 10
3964.84375
 20
-4990.234375
 10
3974.609375
 20
-4990.234375
 10
3984.375
 20
-4990.234375
 10
3994.140625
 20
-4990.234375
 10
4003.90625
 20
-4990.234375
 10
4013.671875
 20
-4990.234375
 10
4023.4375
 20
-4990.234375
 10
4033.203125
 20
-4990.234375
 10
4042.96875
 20
-4990.234375
 10
4052.734375
 20
-4990.234375
 10
4062.5
 20
-4990.234375
 10
4072.265625
 20
-4990.234375
 10
4082.03125
 20
-4990.234375
 10
4091.796875
 20
-4990.234375
 10
4101.5625
 20
-4990.234375
 10
4111.328125
 20
-4990.234375
 10
4121.09375
 20
-4990.234375
 10
4130.859375
 20
-4990.234375
 10
4140.625
 20
-4990.234375
 10
4150.390625
 20
-4990.234375
 10
4160.15625
 20
-4990.234375
 10
4169.921875
 20
-4990.234375
 10
4179.6875
 20
-4990.234375
 10
4189.453125
 20
-4990.234375
 10
4199.21875
 20
-4990.234375
 10
4208.984375
 20
-4990.234375
 10
4218.75
 20
-4990.234375
 10
4228.515625
 20
-4990.234375
 10
4238.28125
 20
-4990.234375
 10
4248.046875
 20
-4990.234375
 10
4257.8125
 20
-4990.234375
 10
4267.578125
 20
-4990.234375
 10
4277.34375
 20
-4990.234375
 10
4287.109375
 20
-4990.234375
 10
4296.875
 20
-4990.234375
 10
4306.640625
 20
-4990.234375
 10
4316.40625
 20
-4990.234375
 10
4326.171875
 20
-4990.234375
 10
4335.9375
 20
-4990.234375
 10
4345.703125
 20
-4990.234375
 10
4355.46875
 20
-4990.234375
 10
4365.234375
 20
-4990.234375
 10
4375.0
 20
-4990.234375
 10
4384.765625
 20
-4990.234375
 10
4394.53125
 20
-4990.234375
 10
4404.296875
 20
-4990.234375
 10
4414.0625
 20
-4990.234375
 10
4423.828125
 20
-4990.234375
 10
4433.59375
 20
-4990.234375
 10
4443.359375
 20
-4990.234375
 10
4453.125
 20
-4990.234375
 10
4462.890625
 20
-4990.234375
 10
4472.65625
 20
-4990.234375
 10
4482.421875
 20
-4990.234375
 10
4492.1875
 20
-4990.234375
 10
4501.953125
 20
-4990.234375
 10
4511.71875
 20
-4990.234375
 10
4521.484375
 20
-4990.234375
 10
4531.25
 20
-4990.234375
 10
4541.015625
 20
-4990.234375
 10
4550.78125
 20
-4990.234375
 10
4560.546875
 20
-4990.234375
 10
4570.3125
 20
-4990.234375
 10
4580.078125
 20
-4990.234375
 10
4589.84375
 20
-4990.234375
 10
4599.609375
 20
-4990.234375
 10
4609.375
 20
-4990.234375
 10
4619.140625
 20
-4990.234375
 10
4628.90625
 20
-4990.234375
 10
4638.671875
 20
-4990.234375
 10
4648.4375
 20
-4990.234375
 10
4658.203125
 20
-4990.234375
 10
4667.96875
 20
-4990.234375
 10
4677.734375
 20
-4990.234375
 10
4687.5
 20
-4990.234375
 10
4697.265625
 20
-4990.234375
 10
4707.03125
 20
-4990.234375
 10
4716.796875
 20
-4990.234375
 10
4726.5625
 20
-4990.234375
 10
4736.328125
 20
-4990.234375
 10
4746.09375
 20
-4990.234375
 10
4755.859375
 20
-4990.234375
 10
4765.625
 20
-4990.234375
 10
4775.390625
 20
-4990.234375
 10
4785.15625
 20
-4990.234375
 10
4794.921875
 20
-4990.234375
 10
4804.6875
 20
-4990.234375
 10
4814.453125
 20
-4990.234375
 10
4824.21875
 20
-4990.234375
 10
4833.984375
 20
-4990.234375
 10
4843.75
 20
-4990.234375
 10
4853.515625
 20
-4990.234375
 10
4863.28125
 20
-4990.234375
 10
4873.046875
 20
-4990.234375
 10
4882.8125
 20
-4990.234375
 10
4892.578125
 20
-4990.234375
 10
4902.34375
 20
-4990.234375
 10
4912.109375
 20
-4990.234375
 10
4921.875
 20
-4990.234375
 10
4931.640625
 20
-4990.234375
 10
4941.40625
 20
-4990.234375
 10
4951.171875
 20
-4990.234375
 10
4960.9375
 20
-4990.234375
 10
4970.703125
 20
-4990.234375
 10
4980.46875
 20
-4990.234375
 10
4990.234375
 20
-4990.234375
 10
4990.234375
 20
-4980.46875
 10
4990.234375
 20
-4970.703125
 10
4990.234375
 20
-4960.9375
 10
4990.234375
 20
-4951.171875
 10
4990.234375
 20
-4941.40625
 10
4990.234375
 20
-4931.640625
 10
4990.234375
 20
-4921.875
 10
4990.234375
 20
-4912.109375
 10
4990.234375
 20
-4902.34375
 10
4990.234375
 20
-4892.578125
 10
4990.234375
 20
-4882.8125
 10
4990.234375
 20
-4873.046875
 10
4990.234375
 20
-4863.28125
 10
4990.234375
 20
-4853.515625
 10
4990.234375
 20
-4843.75
 10
4990.234375
 20
-4833.984375
 10
4990.234375
 20
-4824.21875
 10
4990.234375
 20
-4814.453125
 10
4990.234375
 20
-4804.6875
 10
4990.234375
 20
-4794.921875
 10
4990.234375
 20
-4785.15625
 10
4990.234375
 20
-4775.390625
 10
4990.234375
 20
-4765.625
 10
4990.234375
 20
-4755.859375
 10
4990.234375
 20
-4746.09375
 10
4990.234375
 20
-4736.328125
 10
4990.234375
 20
-4726.5625
 10
4990.234375
 20
-4716.796875
 10
4990.234375
 20
-4707.03125
 10
4990.234375
 20
-4697.265625
 10
4990.234375
 20
-4687.5
 10
4990.234375
 20
-4677.734375
 10
4990.234375
 20
-4667.96875
 10
4990.234375
 20
-4658.203125
 10
4990.234375
 20
-4648.4375
 10
4990.234375
 20
-4638.671875
 10
4990.234375
 20
-4628.90625
 10
4990.234375
 20
-4619.140625
 10
4990.234375
 20
-4609.375
 10
4990.234375
 20
-4599.609375
 10
4990.234375
 20
-4589.84375
 10
4990.234375
 20
-4580.078125
 10
4990.234375
 20
-4570.3125
 10
4990.234375
 20
-4560.546875
 10
4990.234375
 20
-4550.78125
 10
4990.234375
 20
-4541.015625
 10
4990.234375
 20
-4531.25
 10
4990.234375
 20
-4521.484375
 10
4990.234375
 20
-4511.71875
 10
4990.234375
 20
-4501.953125
 10
4990.234375
 20
-4492.1875
 10
4990.234375
 20
-4482.421875
 10
4990.234375
 20
-4472.65625
 10
4990.234375
 20
-4462.890625
 10
4990.234375
 20
-4453.125
 10
4990.234375
 20
-4443.359375
 10
4990.234375
 20
-4433.59375
 10
4990.234375
 20
-4423.828125
 10
4990.234375
 20
-4414.0625
 10
4990.234375
 20
-4404.296875
 10
4990.234375
 20
-4394.53125
 10
4990.234375
 20
-4384.765625
 10
4990.234375
 20
-4375.0
 10
4990.234375
 20
-4365.234375
 10
4990.234375
 20
-4355.46875
 10
4990.234375
 20
-4345.703125
 10
4990.234375
 20
-4335.9375
 10
4990.234375
 20
-4326.171875
 10
4990.234375
 20
-4316.40625
 10
4990.234375
 20
-4306.640625
 10
4990.234375
 20
-4296.875
 10
4990.234375
 20
-4287.109375
 10
4990.234375
 20
-4277.34375
 10
4990.234375
 20
-4267.578125
 10
4990.234375
 20
-4257.8125
 10
4990.234375
 20
-4248.046875
 10
4990.234375
 20
-4238.28125
 10
4990.234375
 20
-4228.515625
 10
4990.234375
 20
-4218.75
 10
4990.234375
 20
-4208.984375
 10
4990.234375
 20
-4199.21875
 10
4990.234375
 20
-4189.453125
 10
4990.234375
 20
-4179.6875
 10
4990.234375
 20
-4169.921875
 10
4990.234375
 20
-4160.15625
 10
4990.234375
 20
-4150.390625
 10
4990.234375
 20
-4140.625
 10
4990.234375
 20
-4130.859375
 10
4990.234375
 20
-4121.09375
 10
4990.234375
 20
-4111.328125
 10
4990.234375
 20
-4101.5625
 10
4990.234375
 20
-4091.796875
 10
4990.234375
 20
-4082.03125
 10
4990.234375
 20
-4072.265625
 10
4990.234375
 20
-4062.5
 10
4990.234375
 20
-4052.734375
 10
4990.234375
 20
-4042.96875
 10
4990.234375
 20
-4033.203125
 10
4990.234375
 20
-4023.4375
 10
4990.234375
 20
-4013.671875
 10
4990.234375
 20
-4003.90625
 10
4990.234375
 20
-3994.140625
 10
4990.234375
 20
-3984.375
 10
4990.234375
 20
-3974.609375
 10
4990.234375
 20
-3964.84375
 10
4990.234375
 20
-3955.078125
 10
4990.234375
 20
-3945.3125
 10
4990.234375
 20
-3935.546875
 10
4990.234375
 20
-3925.78125
 10
4990.234375
 20
-3916.015625
 10
4990.234375
 20
-3906.25
 10
4990.234375
 20
-3896.484375
 10
4990.234375
 20
-3886.71875
 10
4990.234375
 20
-3876.953125
 10
4990.234375
 20
-3867.1875
 10
4990.234375
 20
-3857.421875
 10
4990.234375
 20
-3847.65625
 10
4990.234375
 20
-3837.890625
 10
4990.234375
 20
-3828.125
 10
4990.234375
 20
-3818.359375
 10
4990.234375
 20
-3808.59375
 10
4990.234375
 20
-3798.828125
 10
4990.234375
 20
-3789.0625
 10
4990.234375
 20
-3779.296875
 10
4990.234375
 20
-3769.53125
 10
4990.234375
 20
-3759.765625
 10
4990.234375
 20
-3750.0
 10
4990.234375
 20
-3740.234375
 10
4990.234375
 20
-3730.46875
 10
4990.234375
 20
-3720.703125
 10
4990.234375
 20
-3710.9375
 10
4990.234375
 20
-3701.171875
 10
4990.234375
 20
-3691.40625
 10
4990.234375
 20
-3681.640625
 10
4990.234375
 20
-3671.875
 10
4990.234375
 20
-3662.109375
 10
4990.234375
 20
-3652.34375
 10
4990.234375
 20
-3642.578125
 10
4990.234375
 20
-3632.8125
 10
4990.234375
 20
-3623.046875
 10
4990.234375
 20
-3613.28125
 10
4990.234375
 20
-3603.515625
 10
4990.234375
 20
-3593.75
 10
4990.234375
 20
-3583.984375
 10
4990.234375
 20
-3574.21875
 10
4990.234375
 20
-3564.453125
 10
4990.234375
 20
-3554.6875
 10
4990.234375
 20
-3544.921875
 10
4990.234375
 20
-3535.15625
 10
4990.234375
 20
-3525.390625
 10
4990.234375
 20
-3515.625
 10
4990.234375
 20
-3505.859375
 10
4990.234375
 20
-3496.09375
 10
4990.234375
 20
-3486.328125
 10
4990.234375
 20
-3476.5625
 10
4990.234375
 20
-3466.796875
 10
4990.234375
 20
-3457.03125
 10
4990.234375
 20
-3447.265625
 10
4990.234375
 20
-3437.5
 10
4990.234375
 20
-3427.734375
 10
4990.234375
 20
-3417.96875
 10
4990.234375
 20
-3408.203125
 10
4990.234375
 20
-3398.4375
 10
4990.234375
 20
-3388.671875
 10
4990.234375
 20
-3378.90625
 10
4990.234375
 20
-3369.140625
 10
4990.234375
 20
-3359.375
 10
4990.234375
 20
-3349.609375
 10
4990.234375
 20
-3339.84375
 10
4990.234375
 20
-3330.078125
 10
4990.234375
 20
-3320.3125
 10
4990.234375
 20
-3310.546875
 10
4990.234375
 20
-3300.78125
 10
4990.234375
 20
-3291.015625
 10
4990.234375
 20
-3281.25
 10
4990.234375
 20
-3271.484375
 10
4990.234375
 20
-3261.71875
 10
4990.234375
 20
-3251.953125
 10
4990.234375
 20
-3242.1875
 10
4990.234375
 20
-3232.421875
 10
4990.234375
 20
-3222.65625
 10
4990.234375
 20
-3212.890625
 10
4990.234375
 20
-3203.125
 10
4990.234375
 20
-3193.359375
 10
4990.234375
 20
-3183.59375
 10
4990.234375
 20
-3173.828125
 10
4990.234375
 20
-3164.0625
 10
4990.234375
 20
-3154.296875
 10
4990.234375
 20
-3144.53125
 10
4990.234375
 20
-3134.765625
 10
4990.234375
 20
-3125.0
 10
4990.234375
 20
-3115.234375
 10
4990.234375
 20
-3105.46875
 10
4990.234375
 20
-3095.703125
 10
4990.234375
 20
-3085.9375
 10
4990.234375
 20
-3076.171875
 10
4990.234375
 20
-3066.40625
 10
4990.234375
 20
-3056.640625
 10
4990.234375
 20
-3046.875
 10
4990.234375
 20
-3037.109375
 10
4990.234375
 20
-3027.34375
 10
4990.234375
 20
-3017.578125
 10
4990.234375
 20
-3007.8125
 10
4990.234375
 20
-2998.046875
 10
4990.234375
 20
-2988.28125
 10
4990.234375
 20
-2978.515625
 10
4990.234375
 20
-2968.75
 10
4990.234375
 20
-2958.984375
 10
4990.234375
 20
-2949.21875
 10
4990.234375
 20
-2939.453125
 10
4990.234375
 20
-2929.6875
 10
4990.234375
 20
-2919.921875
 10
4990.234375
 20
-2910.15625
 10
4990.234375
 20
-2900.390625
 10
4990.234375
 20
-2890.625
 10
4990.234375
 20
-2880.859375
 10
4990.234375
 20
-2871.09375
 10
4990.234375
 20
-2861.328125
 10
4990.234375
 20
-2851.5625
 10
4990.234375
 20
-2841.796875
 10
4990.234375
 20
-2832.03125
 10
4990.234375
 20
-2822.265625
 10
4990.234375
 20
-2812.5
 10
4990.234375
 20
-2802.734375
 10
4990.234375
 20
-2792.96875
 10
4990.234375
 20
-2783.203125
 10
4990.234375
 20
-2773.4375
 10
4990.234375
 20
-2763.671875
 10
4990.234375
 20
-2753.90625
 10
4990.234375
 20
-2744.140625
 10
4990.234375
 20
-2734.375
 10
4990.234375
 20
-2724.609375
 10
4990.234375
 20
-2714.84375
 10
4990.234375
 20
-2705.078125
 10
4990.234375
 20
-2695.3125
 10
4990.234375
 20
-2685.546875
 10
4990.234375
 20
-2675.78125
 10
4990.234375
 20
-2666.015625
 10
4990.234375
 20
-2656.25
 10
4990.234375
 20
-2646.484375
 10
4990.234375
 20
-2636.71875
 10
4990.234375
 20
-2626.953125
 10
4990.234375
 20
-2617.1875
 10
4990.234375
 20
-2607.421875
 10
4990.234375
 20
-2597.65625
 10
4990.234375
 20
-2587.890625
 10
4990.234375
 20
-2578.125
 10
4990.234375
 20
-2568.359375
 10
4990.234375
 20
-2558.59375
 10
4990.234375
 20
-2548.828125
 10
4990.234375
 20
-2539.0625
 10
4990.234375
 20
-2529.296875
 10
4990.234375
 20
-2519.53125
 10
4990.234375
 20
-2509.765625
 10
4990.234375
 20
-2500.0
 10
4990.234375
 20
-2490.234375
 10
4990.234375
 20
-2480.46875
 10
4990.234375
 20
-2470.703125
 10
4990.234375
 20
-2460.9375
 10
4990.234375
 20
-2451.171875
 10
4990.234375
 20
-2441.40625
 10
4990.234375
 20
-2431.640625
 10
4990.234375
 20
-2421.875
 10
4990.234375
 20
-2412.109375
 10
4990.234375
 20
-2402.34375
 10
4990.234375
 20
-2392.578125
 10
4990.234375
 20
-2382.8125
 10
4990.234375
 20
-2373.046875
 10
4990.234375
 20
-2363.28125
 10
4990.234375
 20
-2353.515625
 10
4990.234375
 20
-2343.75
 10
4990.234375
 20
-2333.984375
 10
4990.234375
 20
-2324.21875
 10
4990.234375
 20
-2314.453125
 10
4990.234375
 20
-2304.6875
 10
4990.234375
 20
-2294.921875
 10
4990.234375
 20
-2285.15625
 10
4990.234375
 20
-2275.390625
 10
4990.234375
 20
-2265.625
 10
4990.234375
 20
-2255.859375
 10
4990.234375
 20
-2246.09375
 10
4990.234375
 20
-2236.328125
 10
4990.234375
 20
-2226.5625
 10
4990.234375
 20
-2216.796875
 10
4990.234375
 20
-2207.03125
 10
4990.234375
 20
-2197.265625
 10
4990.234375
 20
-2187.5
 10
4990.234375
 20
-2177.734375
 10
4990.234375
 20
-2167.96875
 10
4990.234375
 20
-2158.203125
 10
4990.234375
 20
-2148.4375
 10
4990.234375
 20
-2138.671875
 10
4990.234375
 20
-2128.90625
 10
4990.234375
 20
-2119.140625
 10
4990.234375
 20
-2109.375
 10
4990.234375
 20
-2099.609375
 10
4990.234375
 20
-2089.84375
 10
4990.234375
 20
-2080.078125
 10
4990.234375
 20
-2070.3125
 10
4990.234375
 20
-2060.546875
 10
4990.234375
 20
-2050.78125
 10
4990.234375
 20
-2041.015625
 10
4990.234375
 20
-2031.25
 10
4990.234375
 20
-2021.484375
 10
4990.234375
 20
-2011.71875
 10
4990.234375
 20
-2001.953125
 10
4990.234375
 20
-1992.1875
 10
4990.234375
 20
-1982.421875
 10
4990.234375
 20
-1972.65625
 10
4990.234375
 20
-1962.890625
 10
4990.234375
 20
-1953.125
 10
4990.234375
 20
-1943.359375
 10
4990.234375
 20
-1933.59375
 10
4990.234375
 20
-1923.828125
 10
4990.234375
 20
-1914.0625
 10
4990.234375
 20
-1904.296875
 10
4990.234375
 20
-1894.53125
 10
4990.234375
 20
-1884.765625
 10
4990.234375
 20
-1875.0
 10
4990.234375
 20
-1865.234375
 10
4990.234375
 20
-1855.46875
 10
4990.234375
 20
-1845.703125
 10
4990.234375
 20
-1835.9375
 10
4990.234375
 20
-1826.171875
 10
4990.234375
 20
-1816.40625
 10
4990.234375
 20
-1806.640625
 10
4990.234375
 20
-1796.875
 10
4990.234375
 20
-1787.109375
 10
4990.234375
 20
-1777.34375
 10
4990.234375
 20
-1767.578125
 10
4990.234375
 20
-1757.8125
 10
4990.234375
 20
-1748.046875
 10
4990.234375
 20
-1738.28125
 10
4990.234375
 20
-1728.515625
 10
4990.234375
 20
-1718.75
 10
4990.234375
 20
-1708.984375
 10
4990.234375
 20
-1699.21875
 10
4990.234375
 20
-1689.453125
 10
4990.234375
 20
-1679.6875
 10
4990.234375
 20
-1669.921875
 10
4990.234375
 20
-1660.15625
 10
4990.234375
 20
-1650.390625
 10
4990.234375
 20
-1640.625
 10
4990.234375
 20
-1630.859375
 10
4990.234375
 20
-1621.09375
 10
4990.234375
 20
-1611.328125
 10
4990.234375
 20
-1601.5625
 10
4990.234375
 20
-1591.796875
 10
4990.234375
 20
-1582.03125
 10
4990.234375
 20
-1572.265625
 10
4990.234375
 20
-1562.5
 10
4990.234375
 20
-1552.734375
 10
4990.234375
 20
-1542.96875
 10
4990.234375
 20
-1533.203125
 10
4990.234375
 20
-1523.4375
 10
4990.234375
 20
-1513.671875
 10
4990.234375
 20
-1503.90625
 10
4990.234375
 20
-1494.140625
 10
4990.234375
 20
-1484.375
 10
4990.234375
 20
-1474.609375
 10
4990.234375
 20
-1464.84375
 10
4990.234375
 20
-1455.078125
 10
4990.234375
 20
-1445.3125
 10
4990.234375
 20
-1435.546875
 10
4990.234375
 20
-1425.78125
 10
4990.234375
 20
-1416.015625
 10
4990.234375
 20
-1406.25
 10
4990.234375
 20
-1396.484375
 10
4990.234375
 20
-1386.71875
 10
4990.234375
 20
-1376.953125
 10
4990.234375
 20
-1367.1875
 10
4990.234375
 20
-1357.421875
 10
4990.234375
 20
-1347.65625
 10
4990.234375
 20
-1337.890625
 10
4990.234375
 20
-1328.125
 10
4990.234375
 20
-1318.359375
 10
4990.234375
 20
-1308.59375
 10
4990.234375
 20
-1298.828125
 10
4990.234375
 20
-1289.0625
 10
4990.234375
 20
-1279.296875
 10
4990.234375
 20
-1269.53125
 10
4990.234375
 20
-1259.765625
 10
4990.234375
 20
-1250.0
 10
4990.234375
 20
-1240.234375
 10
4990.234375
 20
-1230.46875
 10
4990.234375
 20
-1220.703125
 10
4990.234375
 20
-1210.9375
 10
4990.234375
 20
-1201.171875
 10
4990.234375
 20
-1191.40625
 10
4990.234375
 20
-1181.640625
 10
4990.234375
 20
-1171.875
 10
4990.234375
 20
-1162.109375
 10
4990.234375
 20
-1152.34375
 10
4990.234375
 20
-1142.578125
 10
4990.234375
 20
-1132.8125
 10
4990.234375
 20
-1123.046875
 10
4990.234375
 20
-1113.28125
 10
4990.234375
 20
-1103.515625
 10
4990.234375
 20
-1093.75
 10
4990.234375
 20
-1083.984375
 10
4990.234375
 20
-1074.21875
 10
4990.234375
 20
-1064.453125
 10
4990.234375
 20
-1054.6875
 10
4990.234375
 20
-1044.921875
 10
4990.234375
 20
-1035.15625
 10
4990.234375
 20
-1025.390625
 10
4990.234375
 20
-1015.625
 10
4990.234375
 20
-1005.859375
 10
4990.234375
 20
-996.09375
 10
4990.234375
 20
-986.328125
 10
4990.234375
 20
-976.5625
 10
4990.234375
 20
-966.796875
 10
4990.234375
 20
-957.03125
 10
4990.234375
 20
-947.265625
 10
4990.234375
 20
-937.5
 10
4990.234375
 20
-927.734375
 10
4990.234375
 20
-917.96875
 10
4990.234375
 20
-908.203125
 10
4990.234375
 20
-898.4375
 10
4990.234375
 20
-888.671875
 10
4990.234375
 20
-878.90625
 10
4990.234375
 20
-869.140625
 10
4990.234375
 20
-859.375
 10
4990.234375
 20
-849.609375
 10
4990.234375
 20
-839.84375
 10
4990.234375
 20
-830.078125
 10
4990.234375
 20
-820.3125
 10
4990.234375
 20
-810.546875
 10
4990.234375
 20
-800.78125
 10
4990.234375
 20
-791.015625
 10
4990.234375
 20
-781.25
 10
4990.234375
 20
-771.484375
 10
4990.234375
 20
-761.71875
 10
4990.234375
 20
-751.953125
 10
4990.234375
 20
-742.1875
 10
4990.234375
 20
-732.421875
 10
4990.234375
 20
-722.65625
 10
4990.234375
 20
-712.890625
 10
4990.234375
 20
-703.125
 10
4990.234375
 20
-693.359375
 10
4990.234375
 20
-683.59375
 10
4990.234375
 20
-673.828125
 10
4990.234375
 20
-664.0625
 10
4990.234375
 20
-654.296875
 10
4990.234375
 20
-644.53125
 10
4990.234375
 20
-634.765625
 10
4990.234375
 20
-625.0
 10
4990.234375
 20
-615.234375
 10
4990.234375
 20
-605.46875
 10
4990.234375
 20
-595.703125
 10
4990.234375
 20
-585.9375
 10
4990.234375
 20
-576.171875
 10
4990.234375
 20
-566.40625
 10
4990.234375
 20
-556.640625
 10
4990.234375
 20
-546.875
 10
4990.234375
 20
-537.109375
 10
4990.234375
 20
-527.34375
 10
4990.234375
 20
-517.578125
 10
4990.234375
 20
-507.8125
 10
4990.234375
 20
-498.046875
 10
4990.234375
 20
-488.28125
 10
4990.234375
 20
-478.515625
 10
4990.234375
 20
-468.75
 10
4990.234375
 20
-458.984375
 10
4990.234375
 20
-449.21875
 10
4990.234375
 20
-439.453125
 10
4990.234375
 20
-429.6875
 10
4990.234375
 20
-419.921875
 10
4990.234375
 20
-410.15625
 10
4990.234375
 20
-400.390625
 10
4990.234375
 20
-390.625
 10
4990.234375
 20
-380.859375
 10
4990.234375
 20
-371.09375
 10
4990.234375
 20
-361.328125
 10
4990.234375
 20
-351.5625
 10
4990.234375
 20
-341.796875
 10
4990.234375
 20
-332.03125
 10
4990.234375
 20
-322.265625
 10
4990.234375
 20
-312.5
 10
4990.234375
 20
-302.734375
 10
4990.234375
 20
-292.96875
 10
4990.234375
 20
-283.203125
 10
4990.234375
 20
-273.4375
 10
4990.234375
 20
-263.671875
 10
4990.234375
 20
-253.90625
 10
4990.234375
 20
-244.140625
 10
4990.234375
 20
-234.375
 10
4990.234375
 20
-224.609375
 10
4990.234375
 20
-214.84375
 10
4990.234375
 20
-205.078125
 10
4990.234375
 20
-195.3125
 10
4990.234375
 20
-185.546875
 10
4990.234375
 20
-175.78125
 10
4990.234375
 20
-166.015625
 10
4990.234375
 20
-156.25
 10
4990.234375
 20
-146.484375
 10
4990.234375
 20
-136.71875
 10
4990.234375
 20
-126.953125
 10
4990.234375
 20
-117.1875
 10
4990.234375
 20
-107.421875
 10
4990.234375
 20
-97.65625
 10
4990.234375
 20
-87.890625
 10
4990.234375
 20
-78.125
 10
4990.234375
 20
-68.359375
 10
4990.234375
 20
-58.59375
 10
4990.234375
 20
-48.828125
 10
4990.234375
 20
-39.0625
 10
4990.234375
 20
-29.296875
 10
4990.234375
 20
-19.53125
 10
4990.234375
 20
-9.765625
 10
4990.234375
 20
-0.0
 10
4980.46875
 20
-0.0
 10
4970.703125
 20
-0.0
 10
4960.9375
 20
-0.0
 10
4951.171875
 20
-0.0
 10
4941.40625
 20
-0.0
 10
4931.640625
 20
-0.0
 10
4921.875
 20
-0.0
 10
4912.109375
 20
-0.0
 10
4902.34375
 20
-0.0
 10
4892.578125
 20
-0.0
 10
4882.8125
 20
-0.0
 10
4873.046875
 20
-0.0
 10
4863.28125
 20
-0.0
 10
4853.515625
 20
-0.0
 10
4843.75
 20
-0.0
 10
4833.984375
 20
-0.0
 10
4824.21875
 20
-0.0
 10
4814.453125
 20
-0.0
 10
4804.6875
 20
-0.0
 10
4794.921875
 20
-0.0
 10
4785.15625
 20
-0.0
 10
4775.390625
 20
-0.0
 10
4765.625
 20
-0.0
 10
4755.859375
 20
-0.0
 10
4746.09375
 20
-0.0
 10
4736.328125
 20
-0.0
 10
4726.5625
 20
-0.0
 10
4716.796875
 20
-0.0
 10
4707.03125
 20
-0.0
 10
4697.265625
 20
-0.0
 10
4687.5
 20
-0.0
 10
4677.734375
 20
-0.0
 10
4667.96875
 20
-0.0
 10
4658.203125
 20
-0.0
 10
4648.4375
 20
-0.0
 10
4638.671875
 20
-0.0
 10
4628.90625
 20
-0.0
 10
4619.140625
 20
-0.0
 10
4609.375
 20
-0.0
 10
4599.609375
 20
-0.0
 10
4589.84375
 20
-0.0
 10
4580.078125
 20
-0.0
 10
4570.3125
 20
-0.0
 10
4560.546875
 20
-0.0
 10
4550.78125
 20
-0.0
 10
4541.015625
 20
-0.0
 10
4531.25
 20
-0.0
 10
4521.484375
 20
-0.0
 10
4511.71875
 20
-0.0
 10
4501.953125
 20
-0.0
 10
4492.1875
 20
-0.0
 10
4482.421875
 20
-0.0
 10
4472.65625
 20
-0.0
 10
4462.890625
 20
-0.0
 10
4453.125
 20
-0.0
 10
4443.359375
 20
-0.0
 10
4433.59375
 20
-0.0
 10
4423.828125
 20
-0.0
 10
4414.0625
 20
-0.0
 10
4404.296875
 20
-0.0
 10
4394.53125
 20
-0.0
 10
4384.765625
 20
-0.0
 10
4375.0
 20
-0.0
 10
4365.234375
 20
-0.0
 10
4355.46875
 20
-0.0
 10
4345.703125
 20
-0.0
 10
4335.9375
 20
-0.0
 10
4326.171875
 20
-0.0
 10
4316.40625
 20
-0.0
 10
4306.640625
 20
-0.0
 10
4296.875
 20
-0.0
 10
4287.109375
 20
-0.0
 10
4277.34375
 20
-0.0
 10
4267.578125
 20
-0.0
 10
4257.8125
 20
-0.0
 10
4248.046875
 20
-0.0
 10
4238.28125
 20
-0.0
 10
4228.515625
 20
-0.0
 10
4218.75
 20
-0.0
 10
4208.984375
 20
-0.0
 10
4199.21875
 20
-0.0
 10
4189.453125
 20
-0.0
 10
4179.6875
 20
-0.0
 10
4169.921875
 20
-0.0
 10
4160.15625
 20
-0.0
 10
4150.390625
 20
-0.0
 10
4140.625
 20
-0.0
 10
4130.859375
 20
-0.0
 10
4121.09375
 20
-0.0
 10
4111.328125
 20
-0.0
 10
4101.5625
 20
-0.0
 10
4091.796875
 20
-0.0
 10
4082.03125
 20
-0.0
 10
4072.265625
 20
-0.0
 10
4062.5
 20
-0.0
 10
4052.734375
 20
-0.0
 10
4042.96875
 20
-0.0
 10
4033.203125
 20
-0.0
 10
4023.4375
 20
-0.0
 10
4013.671875
 20
-0.0
 10
4003.90625
 20
-0.0
 10
3994.140625
 20
-0.0
 10
3984.375
 20
-0.0
 10
3974.609375
 20
-0.0
 10
3964.84375
 20
-0.0
 10
3955.078125
 20
-0.0
 10
3945.3125
 20
-0.0
 10
3935.546875
 20
-0.0
 10
3925.78125
 20
-0.0
 10
3916.015625
 20
-0.0
 10
3906.25
 20
-0.0
 10
3896.484375
 20
-0.0
 10
3886.71875
 20
-0.0
 10
3876.953125
 20
-0.0
 10
3867.1875
 20
-0.0
 10
3857.421875
 20
-0.0
 10
3847.65625
 20
-0.0
 10
3837.890625
 20
-0.0
 10
3828.125
 20
-0.0
 10
3818.359375
 20
-0.0
 10
3808.59375
 20
-0.0
 10
3798.828125
 20
-0.0
 10
3789.0625
 20
-0.0
 10
3779.296875
 20
-0.0
 10
3769.53125
 20
-0.0
 10
3759.765625
 20
-0.0
 10
3750.0
 20
-0.0
 10
3740.234375
 20
-0.0
 10
3730.46875
 20
-0.0
 10
3720.703125
 20
-0.0
 10
3710.9375
 20
-0.0
 10
3701.171875
 20
-0.0
 10
3691.40625
 20
-0.0
 10
3681.640625
 20
-0.0
 10
3671.875
 20
-0.0
 10
3662.109375
 20
-0.0
 10
3652.34375
 20
-0.0
 10
3642.578125
 20
-0.0
 10
3632.8125
 20
-0.0
 10
3623.046875
 20
-0.0
 10
3613.28125
 20
-0.0
 10
3603.515625
 20
-0.0
 10
3593.75
 20
-0.0
 10
3583.984375
 20
-0.0
 10
3574.21875
 20
-0.0
 10
3564.453125
 20
-0.0
 10
3554.6875
 20
-0.0
 10
3544.921875
 20
-0.0
 10
3535.15625
 20
-0.0
 10
3525.390625
 20
-0.0
 10
3515.625
 20
-0.0
 10
3505.859375
 20
-0.0
 10
3496.09375
 20
-0.0
 10
3486.328125
 20
-0.0
 10
3476.5625
 20
-0.0
 10
3466.796875
 20
-0.0
 10
3457.03125
 20
-0.0
 10
3447.265625
 20
-0.0
 10
3437.5
 20
-0.0
 10
3427.734375
 20
-0.0
 10
3417.96875
 20
-0.0
 10
3408.203125
 20
-0.0
 10
3398.4375
 20
-0.0
 10
3388.671875
 20
-0.0
 10
3378.90625
 20
-0.0
 10
3369.140625
 20
-0.0
 10
3359.375
 20
-0.0
 10
3349.609375
 20
-0.0
 10
3339.84375
 20
-0.0
 10
3330.078125
 20
-0.0
 10
3320.3125
 20
-0.0
 10
3310.546875
 20
-0.0
 10
3300.78125
 20
-0.0
 10
3291.015625
 20
-0.0
 10
3281.25
 20
-0.0
 10
3271.484375
 20
-0.0
 10
3261.71875
 20
-0.0
 10
3251.953125
 20
-0.0
 10
3242.1875
 20
-0.0
 10
3232.421875
 20
-0.0
 10
3222.65625
 20
-0.0
 10
3212.890625
 20
-0.0
 10
3203.125
 20
-0.0
 10
3193.359375
 20
-0.0
 10
3183.59375
 20
-0.0
 10
3173.828125
 20
-0.0
 10
3164.0625
 20
-0.0
 10
3154.296875
 20
-0.0
 10
3144.53125
 20
-0.0
 10
3134.765625
 20
-0.0
 10
3125.0
 20
-0.0
 10
3115.234375
 20
-0.0
 10
3105.46875
 20
-0.0
 10
3095.703125
 20
-0.0
 10
3085.9375
 20
-0.0
 10
3076.171875
 20
-0.0
 10
3066.40625
 20
-0.0
 10
3056.640625
 20
-0.0
 10
3046.875
 20
-0.0
 10
3037.109375
 20
-0.0
 10
3027.34375
 20
-0.0
 10
3017.578125
 20
-0.0
 10
3007.8125
 20
-0.0
 10
2998.046875
 20
-0.0
 10
2988.28125
 20
-0.0
 10
2978.515625
 20
-0.0
 10
2968.75
 20
-0.0
 10
2958.984375
 20
-0.0
 10
2949.21875
 20
-0.0
 10
2939.453125
 20
-0.0
 10
2929.6875
 20
-0.0
 10
2919.921875
 20
-0.0
 10
2910.15625
 20
-0.0
 10
2900.390625
 20
-0.0
 10
2890.625
 20
-0.0
 10
2880.859375
 20
-0.0
 10
2871.09375
 20
-0.0
 10
2861.328125
 20
-0.0
 10
2851.5625
 20
-0.0
 10
2841.796875
 20
-0.0
 10
2832.03125
 20
-0.0
 10
2822.265625
 20
-0.0
 10
2812.5
 20
-0.0
 10
2802.734375
 20
-0.0
 10
2792.96875
 20
-0.0
 10
2783.203125
 20
-0.0
 10
2773.4375
 20
-0.0
 10
2763.671875
 20
-0.0
 10
2753.90625
 20
-0.0
 10
2744.140625
 20
-0.0
 10
2734.375
 20
-0.0
 10
2724.609375
 20
-0.0
 10
2714.84375
 20
-0.0
 10
2705.078125
 20
-0.0
 10
2695.3125
 20
-0.0
 10
2685.546875
 20
-0.0
 10
2675.78125
 20
-0.0
 10
2666.015625
 20
-0.0
 10
2656.25
 20
-0.0
 10
2646.484375
 20
-0.0
 10
2636.71875
 20
-0.0
 10
2626.953125
 20
-0.0
 10
2617.1875
 20
-0.0
 10
2607.421875
 20
-0.0
 10
2597.65625
 20
-0.0
 10
2587.890625
 20
-0.0
 10
2578.125
 20
-0.0
 10
2568.359375
 20
-0.0
 10
2558.59375
 20
-0.0
 10
2548.828125
 20
-0.0
 10
2539.0625
 20
-0.0
 10
2529.296875
 20
-0.0
 10
2519.53125
 20
-0.0
 10
2509.765625
 20
-0.0
 10
2500.0
 20
-0.0
 10
2490.234375
 20
-0.0
 10
2480.46875
 20
-0.0
 10
2470.703125
 20
-0.0
 10
2460.9375
 20
-0.0
 10
2451.171875
 20
-0.0
 10
2441.40625
 20
-0.0
 10
2431.640625
 20
-0.0
 10
2421.875
 20
-0.0
 10
2412.109375
 20
-0.0
 10
2402.34375
 20
-0.0
 10
2392.578125
 20
-0.0
 10
2382.8125
 20
-0.0
 10
2373.046875
 20
-0.0
 10
2363.28125
 20
-0.0
 10
2353.515625
 20
-0.0
 10
2343.75
 20
-0.0
 10
2333.984375
 20
-0.0
 10
2324.21875
 20
-0.0
 10
2314.453125
 20
-0.0
 10
2304.6875
 20
-0.0
 10
2294.921875
 20
-0.0
 10
2285.15625
 20
-0.0
 10
2275.390625
 20
-0.0
 10
2265.625
 20
-0.0
 10
2255.859375
 20
-0.0
 10
2246.09375
 20
-0.0
 10
2236.328125
 20
-0.0
 10
2226.5625
 20
-0.0
 10
2216.796875
 20
-0.0
 10
2207.03125
 20
-0.0
 10
2197.265625
 20
-0.0
 10
2187.5
 20
-0.0
 10
2177.734375
 20
-0.0
 10
2167.96875
 20
-0.0
 10
2158.203125
 20
-0.0
 10
2148.4375
 20
-0.0
 10
2138.671875
 20
-0.0
 10
2128.90625
 20
-0.0
 10
2119.140625
 20
-0.0
 10
2109.375
 20
-0.0
 10
2099.609375
 20
-0.0
 10
2089.84375
 20
-0.0
 10
2080.078125
 20
-0.0
 10
2070.3125
 20
-0.0
 10
2060.546875
 20
-0.0
 10
2050.78125
 20
-0.0
 10
2041.015625
 20
-0.0
 10
2031.25
 20
-0.0
 10
2021.484375
 20
-0.0
 10
2011.71875
 20
-0.0
 10
2001.953125
 20
-0.0
 10
1992.1875
 20
-0.0
 10
1982.421875
 20
-0.0
 10
1972.65625
 20
-0.0
 10
1962.890625
 20
-0.0
 10
1953.125
 20
-0.0
 10
1943.359375
 20
-0.0
 10
1933.59375
 20
-0.0
 10
1923.828125
 20
-0.0
 10
1914.0625
 20
-0.0
 10
1904.296875
 20
-0.0
 10
1894.53125
 20
-0.0
 10
1884.765625
 20
-0.0
 10
1875.0
 20
-0.0
 10
1865.234375
 20
-0.0
 10
1855.46875
 20
-0.0
 10
1845.703125
 20
-0.0
 10
1835.9375
 20
-0.0
 10
1826.171875
 20
-0.0
 10
1816.40625
 20
-0.0
 10
1806.640625
 20
-0.0
 10
1796.875
 20
-0.0
 10
1787.109375
 20
-0.0
 10
1777.34375
 20
-0.0
 10
1767.578125
 20
-0.0
 10
1757.8125
 20
-0.0
 10
1748.046875
 20
-0.0
 10
1738.28125
 20
-0.0
 10
1728.515625
 20
-0.0
 10
1718.75
 20
-0.0
 10
1708.984375
 20
-0.0
 10
1699.21875
 20
-0.0
 10
1689.453125
 20
-0.0
 10
1679.6875
 20
-0.0
 10
1669.921875
 20
-0.0
 10
1660.15625
 20
-0.0
 10
1650.390625
 20
-0.0
 10
1640.625
 20
-0.0
 10
1630.859375
 20
-0.0
 10
1621.09375
 20
-0.0
 10
1611.328125
 20
-0.0
 10
1601.5625
 20
-0.0
 10
1591.796875
 20
-0.0
 10
1582.03125
 20
-0.0
 10
1572.265625
 20
-0.0
 10
1562.5
 20
-0.0
 10
1552.734375
 20
-0.0
 10
1542.96875
 20
-0.0
 10
1533.203125
 20
-0.0
 10
1523.4375
 20
-0.0
 10
1513.671875
 20
-0.0
 10
1503.90625
 20
-0.0
 10
1494.140625
 20
-0.0
 10
1484.375
 20
-0.0
 10
1474.609375
 20
-0.0
 10
1464.84375
 20
-0.0
 10
1455.078125
 20
-0.0
 10
1445.3125
 20
-0.0
 10
1435.546875
 20
-0.0
 10
1425.78125
 20
-0.0
 10
1416.015625
 20
-0.0
 10
1406.25
 20
-0.0
 10
1396.484375
 20
-0.0
 10
1386.71875
 20
-0.0
 10
1376.953125
 20
-0.0
 10
1367.1875
 20
-0.0
 10
1357.421875
 20
-0.0
 10
1347.65625
 20
-0.0
 10
1337.890625
 20
-0.0
 10
1328.125
 20
-0.0
 10
1318.359375
 20
-0.0
 10
1308.59375
 20
-0.0
 10
1298.828125
 20
-0.0
 10
1289.0625
 20
-0.0
 10
1279.296875
 20
-0.0
 10
1269.53125
 20
-0.0
 10
1259.765625
 20
-0.0
 10
1250.0
 20
-0.0
 10
1240.234375
 20
-0.0
 10
1230.46875
 20
-0.0
 10
1220.703125
 20
-0.0
 10
1210.9375
 20
-0.0
 10
1201.171875
 20
-0.0
 10
1191.40625
 20
-0.0
 10
1181.640625
 20
-0.0
 10
1171.875
 20
-0.0
 10
1162.109375
 20
-0.0
 10
1152.34375
 20
-0.0
 10
1142.578125
 20
-0.0
 10
1132.8125
 20
-0.0
 10
1123.046875
 20
-0.0
 10
1113.28125
 20
-0.0
 10
1103.515625
 20
-0.0
 10
1093.75
 20
-0.0
 10
1083.984375
 20
-0.0
 10
1074.21875
 20
-0.0
 10
1064.453125
 20
-0.0
 10
1054.6875
 20
-0.0
 10
1044.921875
 20
-0.0
 10
1035.15625
 20
-0.0
 10
1025.390625
 20
-0.0
 10
1015.625
 20
-0.0
 10
1005.859375
 20
-0.0
 10
996.09375
 20
-0.0
 10
986.328125
 20
-0.0
 10
976.5625
 20
-0.0
 10
966.796875
 20
-0.0
 10
957.03125
 20
-0.0
 10
947.265625
 20
-0.0
 10
937.5
 20
-0.0
 10
927.734375
 20
-0.0
 10
917.96875
 20
-0.0
 10
908.203125
 20
-0.0
 10
898.4375
 20
-0.0
 10
888.671875
 20
-0.0
 10
878.90625
 20
-0.0
 10
869.140625
 20
-0.0
 10
859.375
 20
-0.0
 10
849.609375
 20
-0.0
 10
839.84375
 20
-0.0
 10
830.078125
 20
-0.0
 10
820.3125
 20
-0.0
 10
810.546875
 20
-0.0
 10
800.78125
 20
-0.0
 10
791.015625
 20
-0.0
 10
781.25
 20
-0.0
 10
771.484375
 20
-0.0
 10
761.71875
 20
-0.0
 10
751.953125
 20
-0.0
 10
742.1875
 20
-0.0
 10
732.421875
 20
-0.0
 10
722.65625
 20
-0.0
 10
712.890625
 20
-0.0
 10
703.125
 20
-0.0
 10
693.359375
 20
-0.0
 10
683.59375
 20
-0.0
 10
673.828125
 20
-0.0
 10
664.0625
 20
-0.0
 10
654.296875
 20
-0.0
 10
644.53125
 20
-0.0
 10
634.765625
 20
-0.0
 10
625.0
 20
-0.0
 10
615.234375
 20
-0.0
 10
605.46875
 20
-0.0
 10
595.703125
 20
-0.0
 10
585.9375
 20
-0.0
 10
576.171875
 20
-0.0
 10
566.40625
 20
-0.0
 10
556.640625
 20
-0.0
 10
546.875
 20
-0.0
 10
537.109375
 20
-0.0
 10
527.34375
 20
-0.0
 10
517.578125
 20
-0.0
 10
507.8125
 20
-0.0
 10
498.046875
 20
-0.0
 10
488.28125
 20
-0.0
 10
478.515625
 20
-0.0
 10
468.75
 20
-0.0
 10
458.984375
 20
-0.0
 10
449.21875
 20
-0.0
 10
439.453125
 20
-0.0
 10
429.6875
 20
-0.0
 10
419.921875
 20
-0.0
 10
410.15625
 20
-0.0
 10
400.390625
 20
-0.0
 10
390.625
 20
-0.0
 10
380.859375
 20
-0.0
 10
371.09375
 20
-0.0
 10
361.328125
 20
-0.0
 10
351.5625
 20
-0.0
 10
341.796875
 20
-0.0
 10
332.03125
 20
-0.0
 10
322.265625
 20
-0.0
 10
312.5
 20
-0.0
 10
302.734375
 20
-0.0
 10
292.96875
 20
-0.0
 10
283.203125
 20
-0.0
 10
273.4375
 20
-0.0
 10
263.671875
 20
-0.0
 10
253.90625
 20
-0.0
 10
244.140625
 20
-0.0
 10
234.375
 20
-0.0
 10
224.609375
 20
-0.0
 10
214.84375
 20
-0.0
 10
205.078125
 20
-0.0
 10
195.3125
 20
-0.0
 10
185.546875
 20
-0.0
 10
175.78125
 20
-0.0
 10
166.015625
 20
-0.0
 10
156.25
 20
-0.0
 10
146.484375
 20
-0.0
 10
136.71875
 20
-0.0
 10
126.953125
 20
-0.0
 10
117.1875
 20
-0.0
 10
107.421875
 20
-0.0
 10
97.65625
 20
-0.0
 10
87.890625
 20
-0.0
 10
78.125
 20
-0.0
 10
68.359375
 20
-0.0
 10
58.59375
 20
-0.0
 10
48.828125
 20
-0.0
 10
39.0625
 20
-0.0
 10
29.296875
 20
-0.0
 10
19.53125
 20
-0.0
 10
9.765625
 20
-0.0
  0
LWPOLYLINE
  5
34
330
17
100
AcDbEntity
  8
substrate
100
AcDbPolyline
 90
560
 70
1
 43
0.5
 10
2255.859375
 20
-1796.875
 10
2265.625
 20
-1787.109375
 10
2275.390625
 20
-1787.109375
 10
2285.15625
 20
-1787.109375
 10
2294.921875
 20
-1787.109375
 10
2304.6875
 20
-1787.109375
 10
2314.453125
 20
-1787.109375
 10
2324.21875
 20
-1787.109375
 10
2333.984375
 20
-1787.109375
 10
2343.75
 20
-1787.109375
 10
2353.515625
 20
-1787.109375
 10
2363.28125
 20
-1787.109375
 10
2373.046875
 20
-1787.109375
 10
2382.8125
 20
-1787.109375
 10
2392.578125
 20
-1787.109375
 10
2402.34375
 20
-1787.109375
 10
2412.109375
 20
-1787.109375
 10
2421.875
 20
-1787.109375
 10
2431.640625
 20
-1787.109375
 10
2441.40625
 20
-1787.109375
 10
2451.171875
 20
-1787.109375
 10
2460.9375
 20
-1787.109375
 10
2470.703125
 20
-1787.109375
 10
2480.46875
 20
-1787.109375
 10
2490.234375
 20
-1787.109375
 10
2500.0
 20
-1787.109375
 10
2509.765625
 20
-1787.109375
 10
2519.53125
 20
-1787.109375
 10
2529.296875
 20
-1787.109375
 10
2539.0625
 20
-1787.109375
 10
2548.828125
 20
-1787.109375
 10
2558.59375
 20
-1787.109375
 10
2568.359375
 20
-1787.109375
 10
2578.125
 20
-1787.109375
 10
2587.890625
 20
-1787.109375
 10
2597.65625
 20
-1787.109375
 10
2607.421875
 20
-1787.109375
 10
2617.1875
 20
-1787.109375
 10
2626.953125
 20
-1787.109375
 10
2636.71875
 20
-1787.109375
 10
2646.484375
 20
-1787.109375
 10
2656.25
 20
-1787.109375
 10
2666.015625
 20
-1787.109375
 10
2675.78125
 20
-1787.109375
 10
2685.546875
 20
-1787.109375
 10
2695.3125
 20
-1787.109375
 10
2705.078125
 20
-1787.109375
 10
2714.84375
 20
-1787.109375
 10
2724.609375
 20
-1787.109375
 10
2734.375
 20
-1796.875
 10
2734.375
 20
-1806.640625
 10
2734.375
 20
-1816.40625
 10
2734.375
 20
-1826.171875
 10
2734.375
 20
-1835.9375
 10
2734.375
 20
-1845.703125
 10
2734.375
 20
-1855.46875
 10
2734.375
 20
-1865.234375
 10
2744.140625
 20
-1865.234375
 10
2753.90625
 20
-1865.234375
 10
2763.671875
 20
-1865.234375
 10
2773.4375
 20
-1865.234375
 10
2783.203125
 20
-1865.234375
 10
2792.96875
 20
-1865.234375
 10
2802.734375
 20
-1865.234375
 10
2812.5
 20
-1865.234375
 10
2822.265625
 20
-1865.234375
 10
2832.03125
 20
-1865.234375
 10
2841.796875
 20
-1865.234375
 10
2851.5625
 20
-1865.234375
 10
2861.328125
 20
-1865.234375
 10
2871.09375
 20
-1865.234375
 10
2880.859375
 20
-1865.234375
 10
2890.625
 20
-1865.234375
 10
2900.390625
 20
-1865.234375
 10
2910.15625
 20
-1865.234375
 10
2919.921875
 20
-1865.234375
 10
2929.6875
 20
-1865.234375
 10
2939.453125
 20
-1865.234375
 10
2949.21875
 20
-1865.234375
 10
2958.984375
 20
-1865.234375
 10
2968.75
 20
-1875.0
 10
2968.75
 20
-1884.765625
 10
2968.75
 20
-1894.53125
 10
2968.75
 20
-1904.296875
 10
2968.75
 20
-1914.0625
 10
2968.75
 20
-1923.828125
 10
2968.75
 20
-1933.59375
 10
2968.75
 20
-1943.359375
 10
2978.515625
 20
-1943.359375
 10
2988.28125
 20
-1943.359375
 10
2998.046875
 20
-1943.359375
 10
3007.8125
 20
-1943.359375
 10
3017.578125
 20
-1943.359375
 10
3027.34375
 20
-1943.359375
 10
3037.109375
 20
-1943.359375
 10
3046.875
 20
-1953.125
 10
3046.875
 20
-1962.890625
 10
3046.875
 20
-1972.65625
 10
3046.875
 20
-1982.421875
 10
3046.875
 20
-1992.1875
 10
3046.875
 20
-2001.953125
 10
3046.875
 20
-2011.71875
 10
3046.875
 20
-2021.484375
 10
3056.640625
 20
-2021.484375
 10
3066.40625
 20
-2021.484375
 10
3076.171875
 20
-2021.484375
 10
3085.9375
 20
-2021.484375
 10
3095.703125
 20
-2021.484375
 10
3105.46875
 20
-2021.484375
 10
3115.234375
 20
-2021.484375
 10
3125.0
 20
-2031.25
 10
3125.0
 20
-2041.015625
 10
3125.0
 20
-2050.78125
 10
3125.0
 20
-2060.546875
 10
3125.0
 20
-2070.3125
 10
3125.0
 20
-2080.078125
 10
3125.0
 20
-2089.84375
 10
3125.0
 20
-2099.609375
 10
3125.0
 20
-2109.375
 10
3125.0
 20
-2119.140625
 10
3125.0
 20
-2128.90625
 10
3125.0
 20
-2138.671875
 10
3125.0
 20
-2148.4375
 10
3125.0
 20
-2158.203125
 10
3125.0
 20
-2167.96875
 10
3125.0
 20
-2177.734375
 10
3125.0
 20
-2187.5
 10
3125.0
 20
-2197.265625
 10
3125.0
 20
-2207.03125
 10
3125.0
 20
-2216.796875
 10
3125.0
 20
-2226.5625
 10
3125.0
 20
-2236.328125
 10
3125.0
 20
-2246.09375
 10
3125.0
 20
-2255.859375
 10
3125.0
 20
-2265.625
 10
3125.0
 20
-2275.390625
 10
3125.0
 20
-2285.15625
 10
3125.0
 20
-2294.921875
 10
3125.0
 20
-2304.6875
 10
3125.0
 20
-2314.453125
 10
3125.0
 20
-2324.21875
 10
3125.0
 20
-2333.984375
 10
3134.765625
 20
-2333.984375
 10
3144.53125
 20
-2333.984375
 10
3154.296875
 20
-2333.984375
 10
3164.0625
 20
-2333.984375
 10
3173.828125
 20
-2333.984375
 10
3183.59375
 20
-2333.984375
 10
3193.359375
 20
-2333.984375
 10
3203.125
 20
-2343.75
 10
3203.125
 20
-2353.515625
 10
3203.125
 20
-2363.28125
 10
3203.125
 20
-2373.046875
 10
3203.125
 20
-2382.8125
 10
3203.125
 20
-2392.578125
 10
3203.125
 20
-2402.34375
 10
3203.125
 20
-2412.109375
 10
3203.125
 20
-2421.875
 10
3203.125
 20
-2431.640625
 10
3203.125
 20
-2441.40625
 10
3203.125
 20
-2451.171875
 10
3203.125
 20
-2460.9375
 10
3203.125
 20
-2470.703125
 10
3203.125
 20
-2480.46875
 10
3203.125
 20
-2490.234375
 10
3203.125
 20
-2500.0
 10
3203.125
 20
-2509.765625
 10
3203.125
 20
-2519.53125
 10
3203.125
 20
-2529.296875
 10
3203.125
 20
-2539.0625
 10
3203.125
 20
-2548.828125
 10
3203.125
 20
-2558.59375
 10
3203.125
 20
-2568.359375
 10
3203.125
 20
-2578.125
 10
3203.125
 20
-2587.890625
 10
3203.125
 20
-2597.65625
 10
3203.125
 20
-2607.421875
 10
3203.125
 20
-2617.1875
 10
3203.125
 20
-2626.953125
 10
3203.125
 20
-2636.71875
 10
3203.125
 20
-2646.484375
 10
3203.125
 20
-2656.25
 10
3203.125
 20
-2666.015625
 10
3203.125
 20
-2675.78125
 10
3203.125
 20
-2685.546875
 10
3203.125
 20
-2695.3125
 10
3203.125
 20
-2705.078125
 10
3203.125
 20
-2714.84375
 10
3203.125
 20
-2724.609375
 10
3193.359375
 20
-2734.375
 10
3183.59375
 20
-2734.375
 10
3173.828125
 20
-2734.375
 10
3164.0625
 20
-2734.375
 10
3154.296875
 20
-2734.375
 10
3144.53125
 20
-2734.375
 10
3134.765625
 20
-2734.375
 10
3125.0
 20
-2734.375
 10
3125.0
 20
-2744.140625
 10
3125.0
 20
-2753.90625
 10
3125.0
 20
-2763.671875
 10
3125.0
 20
-2773.4375
 10
3125.0
 20
-2783.203125
 10
3125.0
 20
-2792.96875
 10
3125.0
 20
-2802.734375
 10
3125.0
 20
-2812.5
 10
3125.0
 20
-2822.265625
 10
3125.0
 20
-2832.03125
 10
3125.0
 20
-2841.796875
 10
3125.0
 20
-2851.5625
 10
3125.0
 20
-2861.328125
 10
3125.0
 20
-2871.09375
 10
3125.0
 20
-2880.859375
 10
3115.234375
 20
-2890.625
 10
3105.46875
 20
-2890.625
 10
3095.703125
 20
-2890.625
 10
3085.9375
 20
-2890.625
 10
3076.171875
 20
-2890.625
 10
3066.40625
 20
-2890.625
 10
3056.640625
 20
-2890.625
 10
3046.875
 20
-2890.625
 10
3046.875
 20
-2900.390625
 10
3046.875
 20
-2910.15625
 10
3046.875
 20
-2919.921875
 10
3046.875
 20
-2929.6875
 10
3046.875
 20
-2939.453125
 10
3046.875
 20
-2949.21875
 10
3046.875
 20
-2958.984375
 10
3037.109375
 20
-2968.75
 10
3027.34375
 20
-2968.75
 10
3017.578125
 20
-2968.75
 10
3007.8125
 20
-2968.75
 10
2998.046875
 20
-2968.75
 10
2988.28125
 20
-2968.75
 10
2978.515625
 20
-2968.75
 10
2968.75
 20
-2968.75
 10
2968.75
 20
-2978.515625
 10
2968.75
 20
-2988.28125
 10
2968.75
 20
-2998.046875
 10
2968.75
 20
-3007.8125
 10
2968.75
 20
-3017.578125
 10
2968.75
 20
-3027.34375
 10
2968.75
 20
-3037.109375
 10
2968.75
 20
-3046.875
 10
2968.75
 20
-3056.640625
 10
2968.75
 20
-3066.40625
 10
2968.75
 20
-3076.171875
 10
2968.75
 20
-3085.9375
 10
2968.75
 20
-3095.703125
 10
2968.75
 20
-3105.46875
 10
2968.75
 20
-3115.234375
 10
2958.984375
 20
-3125.0
 10
2949.21875
 20
-3125.0
 10
2939.453125
 20
-3125.0
 10
2929.6875
 20
-3125.0
 10
2919.921875
 20
-3125.0
 10
2910.15625
 20
-3125.0
 10
2900.390625
 20
-3125.0
 10
2890.625
 20
-3125.0
 10
2880.859375
 20
-3125.0
 10
2871.09375
 20
-3125.0
 10
2861.328125
 20
-3125.0
 10
2851.5625
 20
-3125.0
 10
2841.796875
 20
-3125.0
 10
2832.03125
 20
-3125.0
 10
2822.265625
 20
-3125.0
 10
2812.5
 20
-3125.0
 10
2802.734375
 20
-3125.0
 10
2792.96875
 20
-3125.0
 10
2783.203125
 20
-3125.0
 10
2773.4375
 20
-3125.0
 10
2763.671875
 20
-3125.0
 10
2753.90625
 20
-3125.0
 10
2744.140625
 20
-3125.0
 10
2734.375
 20
-3125.0
 10
2724.609375
 20
-3125.0
 10
2714.84375
 20
-3125.0
 10
2705.078125
 20
-3125.0
 10
2695.3125
 20
-3125.0
 10
2685.546875
 20
-3125.0
 10
2675.78125
 20
-3125.0
 10
2666.015625
 20
-3125.0
 10
2656.25
 20
-3125.0
 10
2656.25
 20
-3134.765625
 10
2656.25
 20
-3144.53125
 10
2656.25
 20
-3154.296875
 10
2656.25
 20
-3164.0625
 10
2656.25
 20
-3173.828125
 10
2656.25
 20
-3183.59375
 10
2656.25
 20
-3193.359375
 10
2646.484375
 20
-3203.125
 10
2636.71875
 20
-3203.125
 10
2626.953125
 20
-3203.125
 10
2617.1875
 20
-3203.125
 10
2607.421875
 20
-3203.125
 10
2597.65625
 20
-3203.125
 10
2587.890625
 20
-3203.125
 10
2578.125
 20
-3203.125
 10
2568.359375
 20
-3203.125
 10
2558.59375
 20
-3203.125
 10
2548.828125
 20
-3203.125
 10
2539.0625
 20
-3203.125
 10
2529.296875
 20
-3203.125
 10
2519.53125
 20
-3203.125
 10
2509.765625
 20
-3203.125
 10
2500.0
 20
-3203.125
 10
2490.234375
 20
-3203.125
 10
2480.46875
 20
-3203.125
 10
2470.703125
 20
-3203.125
 10
2460.9375
 20
-3203.125
 10
2451.171875
 20
-3203.125
 10
2441.40625
 20
-3203.125
 10
2431.640625
 20
-3203.125
 10
2421.875
 20
-3203.125
 10
2412.109375
 20
-3203.125
 10
2402.34375
 20
-3203.125
 10
2392.578125
 20
-3203.125
 10
2382.8125
 20
-3203.125
 10
2373.046875
 20
-3203.125
 10
2363.28125
 20
-3203.125
 10
2353.515625
 20
-3203.125
 10
2343.75
 20
-3203.125
 10
2333.984375
 20
-3203.125
 10
2324.21875
 20
-3203.125
 10
2314.453125
 20
-3203.125
 10
2304.6875
 20
-3203.125
 10
2294.921875
 20
-3203.125
 10
2285.15625
 20
-3203.125
 10
2275.390625
 20
-3203.125
 10
2265.625
 20
-3203.125
 10
2255.859375
 20
-3193.359375
 10
2255.859375
 20
-3183.59375
 10
2255.859375
 20
-3173.828125
 10
2255.859375
 20
-3164.0625
 10
2255.859375
 20
-3154.296875
 10
2255.859375
 20
-3144.53125
 10
2255.859375
 20
-3134.765625
 10
2255.859375
 20
-3125.0
 10
2246.09375
 20
-3125.0
 10
2236.328125
 20
-3125.0
 10
2226.5625
 20
-3125.0
 10
2216.796875
 20
-3125.0
 10
2207.03125
 20
-3125.0
 10
2197.265625
 20
-3125.0
 10
2187.5
 20
-3125.0
 10
2177.734375
 20
-3125.0
 10
2167.96875
 20
-3125.0
 10
2158.203125
 20
-3125.0
 10
2148.4375
 20
-3125.0
 10
2138.671875
 20
-3125.0
 10
2128.90625
 20
-3125.0
 10
2119.140625
 20
-3125.0
 10
2109.375
 20
-3125.0
 10
2099.609375
 20
-3125.0
 10
2089.84375
 20
-3125.0
 10
2080.078125
 20
-3125.0
 10
2070.3125
 20
-3125.0
 10
2060.546875
 20
-3125.0
 10
2050.78125
 20
-3125.0
 10
2041.015625
 20
-3125.0
 10
2031.25
 20
-3125.0
 10
2021.484375
 20
-3115.234375
 10
2021.484375
 20
-3105.46875
 10
2021.484375
 20
-3095.703125
 10
2021.484375
 20
-3085.9375
 10
2021.484375
 20
-3076.171875
 10
2021.484375
 20
-3066.40625
 10
2021.484375
 20
-3056.640625
 10
2021.484375
 20
-3046.875
 10
2011.71875
 20
-3046.875
 10
2001.953125
 20
-3046.875
 10
1992.1875
 20
-3046.875
 10
1982.421875
 20
-3046.875
 10
1972.65625
 20
-3046.875
 10
1962.890625
 20
-3046.875
 10
1953.125
 20
-3046.875
 10
1943.359375
 20
-3037.109375
 10
1943.359375
 20
-3027.34375
 10
1943.359375
 20
-3017.578125
 10
1943.359375
 20
-3007.8125
 10
1943.359375
 20
-2998.046875
 10
1943.359375
 20
-2988.28125
 10
1943.359375
 20
-2978.515625
 10
1943.359375
 20
-2968.75
 10
1943.359375
 20
-2958.984375
 10
1943.359375
 20
-2949.21875
 10
1943.359375
 20
-2939.453125
 10
1943.359375
 20
-2929.6875
 10
1943.359375
 20
-2919.921875
 10
1943.359375
 20
-2910.15625
 10
1943.359375
 20
-2900.390625
 10
1943.359375
 20
-2890.625
 10
1933.59375
 20
-2890.625
 10
1923.828125
 20
-2890.625
 10
1914.0625
 20
-2890.625
 10
1904.296875
 20
-2890.625
 10
1894.53125
 20
-2890.625
 10
1884.765625
 20
-2890.625
 10
1875.0
 20
-2890.625
 10
1865.234375
 20
-2880.859375
 10
1865.234375
 20
-2871.09375
 10
1865.234375
 20
-2861.328125
 10
1865.234375
 20
-2851.5625
 10
1865.234375
 20
-2841.796875
 10
1865.234375
 20
-2832.03125
 10
1865.234375
 20
-2822.265625
 10
1865.234375
 20
-2812.5
 10
1865.234375
 20
-2802.734375
 10
1865.234375
 20
-2792.96875
 10
1865.234375
 20
-2783.203125
 10
1865.234375
 20
-2773.4375
 10
1865.234375
 20
-2763.671875
 10
1865.234375
 20
-2753.90625
 10
1865.234375
 20
-2744.140625
 10
1865.234375
 20
-2734.375
 10
1855.46875
 20
-2734.375
 10
1845.703125
 20
-2734.375
 10
1835.9375
 20
-2734.375
 10
1826.171875
 20
-2734.375
 10
1816.40625
 20
-2734.375
 10
1806.640625
 20
-2734.375
 10
1796.875
 20
-2734.375
 10
1787.109375
 20
-2724.609375
 10
1787.109375
 20
-2714.84375
 10
1787.109375
 20
-2705.078125
 10
1787.109375
 20
-2695.3125
 10
1787.109375
 20
-2685.546875
 10
1787.109375
 20
-2675.78125
 10
1787.109375
 20
-2666.015625
 10
1787.109375
 20
-2656.25
 10
1787.109375
 20
-2646.484375
 10
1787.109375
 20
-2636.71875
 10
1787.109375
 20
-2626.953125
 10
1787.109375
 20
-2617.1875
 10
1787.109375
 20
-2607.421875
 10
1787.109375
 20
-2597.65625
 10
1787.109375
 20
-2587.890625
 10
1787.109375
 20
-2578.125
 10
1787.109375
 20
-2568.359375
 10
1787.109375
 20
-2558.59375
 10
1787.109375
 20
-2548.828125
 10
1787.109375
 20
-2539.0625
 10
1787.109375
 20
-2529.296875
 10
1787.109375
 20
-2519.53125
 10
1787.109375
 20
-2509.765625
 10
1787.109375
 20
-2500.0
 10
1787.109375
 20
-2490.234375
 10
1787.109375
 20
-2480.46875
 10
1787.109375
 20
-2470.703125
 10
1787.109375
 20
-2460.9375
 10
1787.109375
 20
-2451.171875
 10
1787.109375
 20
-2441.40625
 10
1787.109375
 20
-2431.640625
 10
1787.109375
 20
-2421.875
 10
1787.109375
 20
-2412.109375
 10
1787.109375
 20
-2402.34375
 10
1787.109375
 20
-2392.578125
 10
1787.109375
 20
-2382.8125
 10
1787.109375
 20
-2373.046875
 10
1787.109375
 20
-2363.28125
 10
1787.109375
 20
-2353.515625
 10
1787.109375
 20
-2343.75
 10
1796.875
 20
-2333.984375
 10
1806.640625
 20
-2333.984375
 10
1816.40625
 20
-2333.984375
 10
1826.171875
 20
-2333.984375
 10
1835.9375
 20
-2333.984375
 10
1845.703125
 20
-2333.984375
 10
1855.46875
 20
-2333.984375
 10
1865.234375
 20
-2333.984375
 10
1865.234375
 20
-2324.21875
 10
1865.234375
 20
-2314.453125
 10
1865.234375
 20
-2304.6875
 10
1865.234375
 20
-2294.921875
 10
1865.234375
 20
-2285.15625
 10
1865.234375
 20
-2275.390625
 10
1865.234375
 20
-2265.625
 10
1865.234375
 20
-2255.859375
 10
1865.234375
 20
-2246.09375
 10
1865.234375
 20
-2236.328125
 10
1865.234375
 20
-2226.5625
 10
1865.234375
 20
-2216.796875
 10
1865.234375
 20
-2207.03125
 10
1865.234375
 20
-2197.265625
 10
1865.234375
 20
-2187.5
 10
1865.234375
 20
-2177.734375
 10
1865.234375
 20
-2167.96875
 10
1865.234375
 20
-2158.203125
 10
1865.234375
 20
-2148.4375
 10
1865.234375
 20
-2138.671875
 10
1865.234375
 20
-2128.90625
 10
1865.234375
 20
-2119.140625
 10
1865.234375
 20
-2109.375
 10
1875.0
 20
-2099.609375
 10
1884.765625
 20
-2099.609375
 10
1894.53125
 20
-2099.609375
 10
1904.296875
 20
-2099.609375
 10
1914.0625
 20
-2099.609375
 10
1923.828125
 20
-2099.609375
 10
1933.59375
 20
-2099.609375
 10
1943.359375
 20
-2099.609375
 10
1943.359375
 20
-2089.84375
 10
1943.359375
 20
-2080.078125
 10
1943.359375
 20
-2070.3125
 10
1943.359375
 20
-2060.546875
 10
1943.359375
 20
-2050.78125
 10
1943.359375
 20
-2041.015625
 10
1943.359375
 20
-2031.25
 10
1943.359375
 20
-2021.484375
 10
1943.359375
 20
-2011.71875
 10
1943.359375
 20
-2001.953125
 10
1943.359375
 20
-1992.1875
 10
1943.359375
 20
-1982.421875
 10
1943.359375
 20
-1972.65625
 10
1943.359375
 20
-1962.890625
 10
1943.359375
 20
-1953.125
 10
1953.125
 20
-1943.359375
 10
1962.890625
 20
-1943.359375
 10
1972.65625
 20
-1943.359375
 10
1982.421875
 20
-1943.359375
 10
1992.1875
 20
-1943.359375
 10
2001.953125
 20
-1943.359375
 10
2011.71875
 20
-1943.359375
 10
2021.484375
 20
-1943.359375
 10
2021.484375
 20
-1933.59375
 10
2021.484375
 20
-1923.828125
 10
2021.484375
 20
-1914.0625
 10
2021.484375
 20
-1904.296875
 10
2021.484375
 20
-1894.53125
 10
2021.484375
 20
-1884.765625
 10
2021.484375
 20
-1875.0
 10
2031.25
 20
-1865.234375
 10
2041.015625
 20
-1865.234375
 10
2050.78125
 20
-1865.234375
 10
2060.546875
 20
-1865.234375
 10
2070.3125
 20
-1865.234375
 10
2080.078125
 20
-1865.234375
 10
2089.84375
 20
-1865.234375
 10
2099.609375
 20
-1865.234375
 10
2109.375
 20
-1865.234375
 10
2119.140625
 20
-1865.234375
 10
2128.90625
 20
-1865.234375
 10
2138.671875
 20
-1865.234375
 10
2148.4375
 20
-1865.234375
 10
2158.203125
 20
-1865.234375
 10
2167.96875
 20
-1865.234375
 10
2177.734375
 20
-1865.234375
 10
2187.5
 20
-1865.234375
 10
2197.265625
 20
-1865.234375
 10
2207.03125
 20
-1865.234375
 10
2216.796875
 20
-1865.234375
 10
2226.5625
 20
-1865.234375
 10
2236.328125
 20
-1865.234375
 10
2246.09375
 20
-1865.234375
 10
2255.859375
 20
-1865.234375
 10
2255.859375
 20
-1855.46875
 10
2255.859375
 20
-1845.703125
 10
2255.859375
 20
-1835.9375
 10
2255.859375
 20
-1826.171875
 10
2255.859375
 20
-1816.40625
 10
2255.859375
 20
-1806.640625
  0
ENDSEC
  0
SECTION
  2
OBJECTS
  0
DICTIONARY
  5
A
330
0
100
AcDbDictionary
280
0
281
1
  3
ACAD_COLOR
350
B
  3
ACAD_GROUP
350
C
  3
ACAD_LAYOUT
350
D
  3
ACAD_MATERIAL
350
E
  3
ACAD_MLEADERSTYLE
350
F
  3
ACAD_MLINESTYLE
350
10
  3
ACAD_PLOTSETTINGS
350
11
  3
ACAD_PLOTSTYLENAME
350
12
  3
ACAD_SCALELIST
350
14
  3
ACAD_TABLESTYLE
350
15
  3
ACAD_VISUALSTYLE
350
16
  3
EZDXF_META
350
2D
  0
DICTIONARY
  5
B
330
A
100
AcDbDictionary
280
0
281
1
  0
DICTIONARY
  5
C
330
A
100
AcDbDictionary
280
0
281
1
  0
DICTIONARY
  5
D
330
A
100
AcDbDictionary
280
0
281
1
  3
Model
350
1A
  3
Layout1
350
1E
  0
DICTIONARY
  5
E
330
A
100
AcDbDictionary
280
0
281
1
  3
ByBlock
350
1F
  3
ByLayer
350
20
  3
Global
350
21
  0
DICTIONARY
  5
F
330
A
100
AcDbDictionary
280
0
281
1
  3
Standard
350
2C
  0
DICTIONARY
  5
10
330
A
100
AcDbDictionary
280
0
281
1
  3
Standard
350
22
  0
DICTIONARY
  5
11
330
A
100
AcDbDictionary
280
0
281
1
  0
ACDBDICTIONARYWDFLT
  5
12
330
A
100
AcDbDictionary
280
0
281
1
  3
Normal
350
13
100
AcDbDictionaryWithDefault
340
13
  0
ACDBPLACEHOLDER
  5
13
330
12
  0
DICTIONARY
  5
14
330
A
100
AcDbDictionary
280
0
281
1
  0
DICTIONARY
  5
15
330
A
100
AcDbDictionary
280
0
281
1
  0
DICTIONARY
  5
16
330
A
100
AcDbDictionary
280
0
281
1
  0
LAYOUT
  5
1A
330
D
100
AcDbPlotSettings
  1

  2
Adobe PDF
  4
A3
  6

 40
7.5
 41
20.0
 42
7.5
 43
20.0
 44
420.0
 45
297.0
 46
0.0
 47
0.0
 48
0.0
 49
0.0
140
0.0
141
0.0
142
1.0
143
1.0
 70
1024
 72
1
 73
0
 74
5
  7

 75
16
 76
0
 77
2
 78
300
147
1.0
148
0.0
149
0.0
100
AcDbLayout
  1
Model
 70
1
 71
0
 10
0.0
 20
0.0
 11
420.0
 21
297.0
 12
0.0
 22
0.0
 32
0.0
 14
1e+20
 24
1e+20
 34
1e+20
 15
-1e+20
 25
-1e+20
 35
-1e+20
146
0.0
 13
0.0
 23
0.0
 33
0.0
 16
1.0
 26
0.0
 36
0.0
 17
0.0
 27
1.0
 37
0.0
 76
1
330
17
  0
LAYOUT
  5
1E
330
D
100
AcDbPlotSettings
  1

  2
Adobe PDF
  4
A3
  6

 40
7.5
 41
20.0
 42
7.5
 43
20.0
 44
420.0
 45
297.0
 46
0.0
 47
0.0
 48
0.0
 49
0.0
140
0.0
141
0.0
142
1.0
143
1.0
 70
0
 72
1
 73
0
 74
5
  7

 75
16
 76
0
 77
2
 78
300
147
1.0
148
0.0
149
0.0
100
AcDbLayout
  1
Layout1
 70
1
 71
1
 10
0.0
 20
0.0
 11
420.0
 21
297.0
 12
0.0
 22
0.0
 32
0.0
 14
1e+20
 24
1e+20
 34
1e+20
 15
-1e+20
 25
-1e+20
 35
-1e+20
146
0.0
 13
0.0
 23
0.0
 33
0.0
 16
1.0
 26
0.0
 36
0.0
 17
0.0
 27
1.0
 37
0.0
 76
1
330
1B
  0
MATERIAL
  5
1F
102
{ACAD_REACTORS
330
E
102
}
330
E
100
AcDbMaterial
  1
ByBlock
  2

 70
0
 40
1.0
 71
1
 41
1.0
 91
-1023410177
 42
1.0
 72
1
  3

 73
1
 74
1
 75
1
 44
0.5
 73
0
 45
1.0
 46
1.0
 77
1
  4

 78
1
 79
1
170
1
 48
1.0
171
1
  6

172
1
173
1
174
1
140
1.0
141
1.0
175
1
  7

176
1
177
1
178
1
143
1.0
179
1
  8

270
1
271
1
272
1
145
1.0
146
1.0
273
1
  9

274
1
275
1
276
1
 42
1.0
 72
1
  3

 73
1
 74
1
 75
1
 94
63
  0
MATERIAL
  5
20
102
{ACAD_REACTORS
330
E
102
}
330
E
100
AcDbMaterial
  1
ByLayer
  2

 70
0
 40
1.0
 71
1
 41
1.0
 91
-1023410177
 42
1.0
 72
1
  3

 73
1
 74
1
 75
1
 44
0.5
 73
0
 45
1.0
 46
1.0
 77
1
  4

 78
1
 79
1
170
1
 48
1.0
171
1
  6

172
1
173
1
174
1
140
1.0
141
1.0
175
1
  7

176
1
177
1
178
1
143
1.0
179
1
  8

270
1
271
1
272
1
145
1.0
146
1.0
273
1
  9

274
1
275
1
276
1
 42
1.0
 72
1
  3

 73
1
 74
1
 75
1
 94
63
  0
MATERIAL
  5
21
102
{ACAD_REACTORS
330
E
102
}
330
E
100
AcDbMaterial
  1
Global
  2

 70
0
 40
1.0
 71
1
 41
1.0
 91
-1023410177
 42
1.0
 72
1
  3

 73
1
 74
1
 75
1
 44
0.5
 73
0
 45
1.0
 46
1.0
 77
1
  4

 78
1
 79
1
170
1
 48
1.0
171
1
  6

172
1
173
1
174
1
140
1.0
141
1.0
175
1
  7

176
1
177
1
178
1
143
1.0
179
1
  8

270
1
271
1
272
1
145
1.0
146
1.0
273
1
  9

274
1
275
1
276
1
 42
1.0
 72
1
  3

 73
1
 74
1
 75
1
 94
63
  0
MLINESTYLE
  5
22
102
{ACAD_REACTORS
330
10
102
}
330
10
100
AcDbMlineStyle
  2
Standard
 70
0
  3

 62
256
 51
90.0
 52
90.0
 71
2
 49
0.5
 62
256
  6
BYLAYER
 49
-0.5
 62
256
  6
BYLAYER
  0
MLEADERSTYLE
  5
2C
102
{ACAD_REACTORS
330
F
102
}
330
F
100
AcDbMLeaderStyle
179
2
170
2
171
1
172
0
 90
2
 40
0.0
 41
0.0
173
1
 91
-1056964608
 92
-2
290
1
 42
2.0
291
1
 43
8.0
  3
Standard
 44
4.0
300

342
29
174
1
175
1
176
0
178
1
 93
-1056964608
 45
4.0
292
0
297
0
 46
4.0
 94
-1056964608
 47
1.0
 49
1.0
140
1.0
294
1
141
0.0
177
0
142
1.0
295
0
296
0
143
3.75
271
0
272
9
273
9
  0
DICTIONARY
  5
2D
330
A
100
AcDbDictionary
281
1
  3
CREATED_BY_EZDXF
350
2E
  3
WRITTEN_BY_EZDXF
350
37
  0
DICTIONARYVAR
  5
2E
330
2D
100
DictionaryVariables
280
0
  1
1.1.0 @ 2024-05-02T23:19:45.188665+00:00
  0
DICTIONARYVAR
  5
37
330
2D
100
DictionaryVariables
280
0
  1
1.1.0 @ 2024-05-02T23:19:45.222152+00:00
  0
ENDSEC
  0
EOF
